<?xml version="1.0" encoding="us-ascii" standalone="no"?><svg xmlns="http://www.w3.org/2000/svg" xmlns:xlink="http://www.w3.org/1999/xlink" contentStyleType="text/css" height="355px" preserveAspectRatio="none" style="width:545px;height:355px;background:#FFFFFF;" version="1.1" viewBox="0 0 545 355" width="545px" zoomAndPan="magnify"><defs/><g><rect fill="#1D8900" height="217.4063" style="stroke:#181818;stroke-width:1.0;" width="10" x="97.5" y="113.4502"/><rect fill="#3333C4" height="173.0547" style="stroke:#181818;stroke-width:1.0;" width="10" x="236.5" y="143.8018"/><rect fill="#9D0012" height="14" style="stroke:#181818;stroke-width:1.0;" width="10" x="356.5" y="174.1533"/><rect fill="#A38300" height="84.3516" style="stroke:#181818;stroke-width:1.0;" width="10" x="453.5" y="218.5049"/><rect fill="#FFE374" height="25" style="stroke:#181818;stroke-width:1.0;" width="10" x="458.5" y="256.8564"/><line style="stroke:#181818;stroke-width:0.5;stroke-dasharray:5.0,5.0;" x1="22" x2="22" y1="81.0986" y2="348.8564"/><line style="stroke:#181818;stroke-width:0.5;stroke-dasharray:5.0,5.0;" x1="102.5" x2="102.5" y1="81.0986" y2="348.8564"/><line style="stroke:#181818;stroke-width:0.5;stroke-dasharray:5.0,5.0;" x1="241.5" x2="241.5" y1="81.0986" y2="348.8564"/><line style="stroke:#181818;stroke-width:0.5;stroke-dasharray:5.0,5.0;" x1="361.5" x2="361.5" y1="81.0986" y2="348.8564"/><line style="stroke:#181818;stroke-width:0.5;stroke-dasharray:5.0,5.0;" x1="458.5" x2="458.5" y1="81.0986" y2="348.8564"/><text fill="#000000" font-family="Arial" font-size="14" lengthAdjust="spacing" textLength="29" x="5" y="78.1318">User</text><ellipse cx="22.5" cy="13.5" fill="#000000" rx="8" ry="8" style="stroke:#000000;stroke-width:0.5;"/><path d="M22.5,21.5 L22.5,48.5 M9.5,29.5 L35.5,29.5 M22.5,48.5 L9.5,63.5 M22.5,48.5 L35.5,63.5 " fill="none" style="stroke:#000000;stroke-width:0.5;"/><rect fill="#1D8900" height="31.6094" rx="2.5" ry="2.5" style="stroke:#181818;stroke-width:0.5;" width="64" x="70.5" y="48.4893"/><text fill="#FFFFFF" font-family="sans-serif" font-size="14" lengthAdjust="spacing" textLength="16" x="94.5" y="70.0225">:UI</text><rect fill="#3333C4" height="31.6094" rx="2.5" ry="2.5" style="stroke:#181818;stroke-width:0.5;" width="64" x="209.5" y="48.4893"/><text fill="#FFFFFF" font-family="sans-serif" font-size="14" lengthAdjust="spacing" textLength="38" x="222.5" y="70.0225">:Logic</text><rect fill="#9D0012" height="31.6094" rx="2.5" ry="2.5" style="stroke:#181818;stroke-width:0.5;" width="64" x="329.5" y="48.4893"/><text fill="#FFFFFF" font-family="sans-serif" font-size="14" lengthAdjust="spacing" textLength="42" x="340.5" y="70.0225">:Model</text><rect fill="#A38300" height="31.6094" rx="2.5" ry="2.5" style="stroke:#181818;stroke-width:0.5;" width="68" x="424.5" y="48.4893"/><text fill="#FFFFFF" font-family="sans-serif" font-size="14" lengthAdjust="spacing" textLength="54" x="431.5" y="70.0225">:Storage</text><rect fill="#1D8900" height="217.4063" style="stroke:#181818;stroke-width:1.0;" width="10" x="97.5" y="113.4502"/><rect fill="#3333C4" height="173.0547" style="stroke:#181818;stroke-width:1.0;" width="10" x="236.5" y="143.8018"/><rect fill="#9D0012" height="14" style="stroke:#181818;stroke-width:1.0;" width="10" x="356.5" y="174.1533"/><rect fill="#A38300" height="84.3516" style="stroke:#181818;stroke-width:1.0;" width="10" x="453.5" y="218.5049"/><rect fill="#FFE374" height="25" style="stroke:#181818;stroke-width:1.0;" width="10" x="458.5" y="256.8564"/><polygon fill="#000000" points="85.5,109.4502,95.5,113.4502,85.5,117.4502,89.5,113.4502" style="stroke:#000000;stroke-width:1.0;"/><line style="stroke:#000000;stroke-width:1.0;" x1="22.5" x2="91.5" y1="113.4502" y2="113.4502"/><text fill="#000000" font-family="sans-serif" font-size="13" lengthAdjust="spacing" textLength="56" x="32" y="108.5938">"delete 1"</text><polygon fill="#1D8900" points="224.5,139.8018,234.5,143.8018,224.5,147.8018,228.5,143.8018" style="stroke:#1D8900;stroke-width:1.0;"/><line style="stroke:#1D8900;stroke-width:1.0;" x1="107.5" x2="230.5" y1="143.8018" y2="143.8018"/><text fill="#000000" font-family="sans-serif" font-size="13" lengthAdjust="spacing" textLength="110" x="117" y="138.9453">execute("delete 1")</text><polygon fill="#3333C4" points="344.5,170.1533,354.5,174.1533,344.5,178.1533,348.5,174.1533" style="stroke:#3333C4;stroke-width:1.0;"/><line style="stroke:#3333C4;stroke-width:1.0;" x1="246.5" x2="350.5" y1="174.1533" y2="174.1533"/><text fill="#000000" font-family="sans-serif" font-size="13" lengthAdjust="spacing" textLength="91" x="256" y="169.2969">deletePerson(p)</text><polygon fill="#9D0012" points="257.5,184.1533,247.5,188.1533,257.5,192.1533,253.5,188.1533" style="stroke:#9D0012;stroke-width:1.0;"/><line style="stroke:#9D0012;stroke-width:1.0;stroke-dasharray:2.0,2.0;" x1="251.5" x2="360.5" y1="188.1533" y2="188.1533"/><polygon fill="#3333C4" points="441.5,214.5049,451.5,218.5049,441.5,222.5049,445.5,218.5049" style="stroke:#3333C4;stroke-width:1.0;"/><line style="stroke:#3333C4;stroke-width:1.0;" x1="246.5" x2="447.5" y1="218.5049" y2="218.5049"/><text fill="#000000" font-family="sans-serif" font-size="13" lengthAdjust="spacing" textLength="188" x="256" y="213.6484">saveAddressBook(addressBook)</text><line style="stroke:#A38300;stroke-width:1.0;" x1="463.5" x2="510.5" y1="243.8564" y2="243.8564"/><line style="stroke:#A38300;stroke-width:1.0;" x1="510.5" x2="510.5" y1="243.8564" y2="256.8564"/><line style="stroke:#A38300;stroke-width:1.0;" x1="469.5" x2="510.5" y1="256.8564" y2="256.8564"/><polygon fill="#A38300" points="479.5,252.8564,469.5,256.8564,479.5,260.8564,475.5,256.8564" style="stroke:#A38300;stroke-width:1.0;"/><text fill="#000000" font-family="sans-serif" font-size="13" lengthAdjust="spacing" textLength="63" x="475.5" y="239">Save to file</text><line style="stroke:#A38300;stroke-width:1.0;stroke-dasharray:2.0,2.0;" x1="468.5" x2="510.5" y1="280.8564" y2="280.8564"/><line style="stroke:#A38300;stroke-width:1.0;stroke-dasharray:2.0,2.0;" x1="510.5" x2="510.5" y1="280.8564" y2="293.8564"/><line style="stroke:#A38300;stroke-width:1.0;stroke-dasharray:2.0,2.0;" x1="463.5" x2="510.5" y1="293.8564" y2="293.8564"/><polygon fill="#A38300" points="473.5,289.8564,463.5,293.8564,473.5,297.8564,469.5,293.8564" style="stroke:#A38300;stroke-width:1.0;"/><polygon fill="#A38300" points="257.5,298.8564,247.5,302.8564,257.5,306.8564,253.5,302.8564" style="stroke:#A38300;stroke-width:1.0;"/><line style="stroke:#A38300;stroke-width:1.0;stroke-dasharray:2.0,2.0;" x1="251.5" x2="457.5" y1="302.8564" y2="302.8564"/><polygon fill="#3333C4" points="118.5,312.8564,108.5,316.8564,118.5,320.8564,114.5,316.8564" style="stroke:#3333C4;stroke-width:1.0;"/><line style="stroke:#3333C4;stroke-width:1.0;stroke-dasharray:2.0,2.0;" x1="112.5" x2="240.5" y1="316.8564" y2="316.8564"/><polygon fill="#1D8900" points="33.5,326.8564,23.5,330.8564,33.5,334.8564,29.5,330.8564" style="stroke:#1D8900;stroke-width:1.0;"/><line style="stroke:#1D8900;stroke-width:1.0;stroke-dasharray:2.0,2.0;" x1="27.5" x2="101.5" y1="330.8564" y2="330.8564"/><!--SRC=[XLB1Re904BtlLqmvsGDDl79eGgqr91YCo8aOiu6fsRYoP7UnxTztOLMMYlR4yFQzDsycyyIgWZSbWj8_75_gviY9Eh2gff8U8PHIV7s8IgVjAzISiegGiD12GgPG0bNGjDyidQztioHErcH5fMO5gscbmGkooEj83B9eb12BFIiw3cyhY9D5D1jbBaM9l6CUsmgMoViy7cMc9X_TOyTLjePqawp3nVpC9rrgF-zpRr_Ra05unXermjGZjD3iH4tjfYVcn-YYgyh63W2_iMWqJdg3vzxXTZPY8JztGEDcHml0cgnGAb5DQiVfTdPY8JztmAr_3aPA74hlDRxiAG15JnYMfKIbteGuJ6XVEpdkxFK2-_dWOT0WDGr02_Xa7Fynt6sclULTJtV82_H8ThEPg-Yycx_BQPZBjd9p2FxW4DgJScaD-mK0]--></g></svg>