<?xml version="1.0" encoding="us-ascii" standalone="no"?><svg xmlns="http://www.w3.org/2000/svg" xmlns:xlink="http://www.w3.org/1999/xlink" contentStyleType="text/css" height="219px" preserveAspectRatio="none" style="width:419px;height:219px;background:#FFFFFF;" version="1.1" viewBox="0 0 419 219" width="419px" zoomAndPan="magnify"><defs/><g><!--class AddressBook--><g id="elem_AddressBook"><rect fill="#9D0012" height="27.2485" id="AddressBook" rx="2.5" ry="2.5" style="stroke:#FFFFFF;stroke-width:1.0;" width="93" x="7" y="12.1913"/><text fill="#FFFFFF" font-family="Arial" font-size="15" lengthAdjust="spacing" textLength="87" x="10" y="31.2611">AddressBook</text></g><!--class UniquePersonList--><g id="elem_UniquePersonList"><rect fill="#9D0012" height="27.2485" id="UniquePersonList" rx="2.5" ry="2.5" style="stroke:#FFFFFF;stroke-width:1.0;" width="121" x="121" y="99.1913"/><text fill="#FFFFFF" font-family="Arial" font-size="15" lengthAdjust="spacing" textLength="115" x="124" y="118.2611">UniquePersonList</text></g><!--class UniqueTagList--><g id="elem_UniqueTagList"><rect fill="#9D0012" height="27.2485" id="UniqueTagList" rx="2.5" ry="2.5" style="stroke:#FFFFFF;stroke-width:1.0;" width="99" x="135" y="12.1913"/><text fill="#FFFFFF" font-family="Arial" font-size="15" lengthAdjust="spacing" textLength="93" x="138" y="31.2611">UniqueTagList</text></g><!--class Tag--><g id="elem_Tag"><rect fill="#9D0012" height="27.2485" id="Tag" rx="2.5" ry="2.5" style="stroke:#FFFFFF;stroke-width:1.0;" width="50" x="275.5" y="12.1913"/><text fill="#FFFFFF" font-family="Arial" font-size="15" lengthAdjust="spacing" textLength="25" x="288" y="31.2611">Tag</text></g><!--class Person--><g id="elem_Person"><rect fill="#9D0012" height="27.2485" id="Person" rx="2.5" ry="2.5" style="stroke:#FFFFFF;stroke-width:1.0;" width="53" x="277" y="99.1913"/><text fill="#FFFFFF" font-family="Arial" font-size="15" lengthAdjust="spacing" textLength="47" x="280" y="118.2611">Person</text></g><!--class Name--><g id="elem_Name"><rect fill="#9D0012" height="27.2485" id="Name" rx="2.5" ry="2.5" style="stroke:#FFFFFF;stroke-width:1.0;" width="50" x="193.5" y="186.1913"/><text fill="#FFFFFF" font-family="Arial" font-size="15" lengthAdjust="spacing" textLength="39" x="199" y="205.2611">Name</text></g><!--class Phone--><g id="elem_Phone"><rect fill="#9D0012" height="27.2485" id="Phone" rx="2.5" ry="2.5" style="stroke:#FFFFFF;stroke-width:1.0;" width="50" x="278.5" y="186.1913"/><text fill="#FFFFFF" font-family="Arial" font-size="15" lengthAdjust="spacing" textLength="42" x="282.5" y="205.2611">Phone</text></g><!--class Email--><g id="elem_Email"><rect fill="#9D0012" height="27.2485" id="Email" rx="2.5" ry="2.5" style="stroke:#FFFFFF;stroke-width:1.0;" width="50" x="363.5" y="186.1913"/><text fill="#FFFFFF" font-family="Arial" font-size="15" lengthAdjust="spacing" textLength="37" x="370" y="205.2611">Email</text></g><!--link AddressBook to UniquePersonList--><g id="link_AddressBook_UniquePersonList"><path codeLine="6" d="M82.3867,45.8696 C106.5867,61.9396 133.302,79.6817 157.542,95.7817 " fill="none" id="AddressBook-UniquePersonList" style="stroke:#9D0012;stroke-width:1.1;"/><polygon fill="#9D0012" points="72.39,39.2313,75.1756,45.8827,82.3867,45.8696,79.6011,39.2182,72.39,39.2313" style="stroke:#9D0012;stroke-width:1.1;"/><polygon fill="#9D0012" points="162.54,99.1013,157.2561,90.7899,158.375,96.335,152.8299,97.4539,162.54,99.1013" style="stroke:#9D0012;stroke-width:1.1;"/><text fill="#000000" font-family="sans-serif" font-size="13" font-weight="bold" lengthAdjust="spacing" textLength="7" x="146.9771" y="88.3849">1</text></g><!--link AddressBook to UniqueTagList--><g id="link_AddressBook_UniqueTagList"><path codeLine="7" d="M112.07,25.6913 C123.61,25.6913 117.15,25.6913 128.7,25.6913 " fill="none" id="AddressBook-UniqueTagList" style="stroke:#9D0012;stroke-width:1.1;"/><polygon fill="#9D0012" points="100.07,25.6913,106.07,29.6913,112.07,25.6913,106.07,21.6913,100.07,25.6913" style="stroke:#9D0012;stroke-width:1.1;"/><polygon fill="#9D0012" points="134.7,25.6913,125.7,21.6913,129.7,25.6913,125.7,29.6913,134.7,25.6913" style="stroke:#9D0012;stroke-width:1.1;"/><text fill="#000000" font-family="sans-serif" font-size="13" font-weight="bold" lengthAdjust="spacing" textLength="7" x="119.8716" y="22.019">1</text></g><!--link UniqueTagList to UniquePersonList--><!--link UniqueTagList to UniquePersonList--><!--link UniqueTagList to Tag--><g id="link_UniqueTagList_Tag"><path codeLine="11" d="M234.34,25.6913 C248.04,25.6913 255.74,25.6913 269.43,25.6913 " fill="none" id="UniqueTagList-to-Tag" style="stroke:#9D0012;stroke-width:1.1;"/><polygon fill="#9D0012" points="275.43,25.6913,266.43,21.6913,270.43,25.6913,266.43,29.6913,275.43,25.6913" style="stroke:#9D0012;stroke-width:1.1;"/><text fill="#000000" font-family="sans-serif" font-size="13" font-weight="bold" lengthAdjust="spacing" textLength="5" x="262.3313" y="20.8516">*</text></g><!--link UniquePersonList to Person--><g id="link_UniquePersonList_Person"><path codeLine="12" d="M242.02,112.6913 C253.55,112.6913 259.08,112.6913 270.6,112.6913 " fill="none" id="UniquePersonList-to-Person" style="stroke:#9D0012;stroke-width:1.1;"/><polygon fill="#9D0012" points="276.6,112.6913,267.6,108.6913,271.6,112.6913,267.6,116.6913,276.6,112.6913" style="stroke:#9D0012;stroke-width:1.1;"/></g><!--reverse link Tag to Person--><g id="link_Tag_Person"><path codeLine="14" d="M301.1527,45.2275 C301.7227,61.2975 302.49,83.0013 303.06,99.1013 " fill="none" id="Tag-backto-Person" style="stroke:#9D0012;stroke-width:1.1;"/><polygon fill="#9D0012" points="300.94,39.2313,297.2615,48.3674,301.1172,44.2282,305.2565,48.0839,300.94,39.2313" style="stroke:#9D0012;stroke-width:1.1;"/><text fill="#000000" font-family="sans-serif" font-size="13" font-weight="bold" lengthAdjust="spacing" textLength="5" x="295.1546" y="60.9582">*</text></g><!--link Person to Name--><g id="link_Person_Name"><path codeLine="16" d="M282.4747,134.7166 C266.4047,150.7866 251.4326,165.7587 235.3326,181.8587 " fill="none" id="Person-Name" style="stroke:#9D0012;stroke-width:1.1;"/><polygon fill="#9D0012" points="290.96,126.2313,283.8889,127.6455,282.4747,134.7166,289.5458,133.3024,290.96,126.2313" style="stroke:#9D0012;stroke-width:1.1;"/><polygon fill="#9D0012" points="231.09,186.1013,240.2824,182.5658,234.6255,182.5658,234.6255,176.9089,231.09,186.1013" style="stroke:#9D0012;stroke-width:1.1;"/></g><!--link Person to Phone--><g id="link_Person_Phone"><path codeLine="17" d="M303.5,138.2313 C303.5,154.3013 303.5,164.0013 303.5,180.1013 " fill="none" id="Person-Phone" style="stroke:#9D0012;stroke-width:1.1;"/><polygon fill="#9D0012" points="303.5,126.2313,299.5,132.2313,303.5,138.2313,307.5,132.2313,303.5,126.2313" style="stroke:#9D0012;stroke-width:1.1;"/><polygon fill="#9D0012" points="303.5,186.1013,307.5,177.1013,303.5,181.1013,299.5,177.1013,303.5,186.1013" style="stroke:#9D0012;stroke-width:1.1;"/></g><!--link Person to Email--><g id="link_Person_Email"><path codeLine="18" d="M324.5253,134.7166 C340.5953,150.7866 355.5674,165.7587 371.6674,181.8587 " fill="none" id="Person-Email" style="stroke:#9D0012;stroke-width:1.1;"/><polygon fill="#9D0012" points="316.04,126.2313,317.4542,133.3024,324.5253,134.7166,323.1111,127.6455,316.04,126.2313" style="stroke:#9D0012;stroke-width:1.1;"/><polygon fill="#9D0012" points="375.91,186.1013,372.3745,176.9089,372.3745,182.5658,366.7176,182.5658,375.91,186.1013" style="stroke:#9D0012;stroke-width:1.1;"/></g><!--SRC=[bOxB2i8m44Nt-OgnoqA4_e3WQrTjaReIaT24DZITgKc3-FSMHUrZ8Qw6ENFkPMOQS-Eb0jVUZPetlZRCLHeROKKDmbgwPQNEArJEGJIFniSr6RAmIpRR-B9EukJG4t8Zd5k9l2eiUPHJbIsbj5tnYgY2a5jTb2rVG105S4HzzIfLrX76shK_rKmKJs-m0J-LMag5PqatvDFM_-on_laY3A23R1pu6Y_6s6i2zqqlzgOXx-1Ur6e0qf9mIBQrqEO1]--></g></svg>