<?xml version="1.0" encoding="us-ascii" standalone="no"?><svg xmlns="http://www.w3.org/2000/svg" xmlns:xlink="http://www.w3.org/1999/xlink" contentStyleType="text/css" height="457px" preserveAspectRatio="none" style="width:315px;height:457px;background:#FFFFFF;" version="1.1" viewBox="0 0 315 457" width="315px" zoomAndPan="magnify"><defs/><g><!--cluster LogicPackage--><g id="cluster_LogicPackage"><rect fill="#FFFFFF" height="186" rx="2.5" ry="2.5" style="stroke:#000000;stroke-width:1.0;" width="130" x="85" y="55"/><text fill="#000000" font-family="sans-serif" font-size="16" font-weight="bold" lengthAdjust="spacing" textLength="43" x="128.5" y="73.6094">Logic</text></g><!--cluster ModelPackage--><g id="cluster_ModelPackage"><rect fill="#FFFFFF" height="186" rx="2.5" ry="2.5" style="stroke:#000000;stroke-width:1.0;" width="132" x="7" y="265"/><text fill="#000000" font-family="sans-serif" font-size="16" font-weight="bold" lengthAdjust="spacing" textLength="46" x="50" y="283.6094">Model</text></g><!--cluster StoragePackage--><g id="cluster_StoragePackage"><rect fill="#FFFFFF" height="186" rx="2.5" ry="2.5" style="stroke:#000000;stroke-width:1.0;" width="146" x="163" y="265"/><text fill="#000000" font-family="sans-serif" font-size="16" font-weight="bold" lengthAdjust="spacing" textLength="60" x="206" y="283.6094">Storage</text></g><!--class Logic--><g id="elem_Logic"><rect codeLine="7" fill="#3333C4" height="44.4971" id="Logic" rx="2.5" ry="2.5" style="stroke:#FFFFFF;stroke-width:1.0;" width="78" x="111" y="94"/><text fill="#FFFFFF" font-family="Arial" font-size="15" lengthAdjust="spacing" textLength="72" x="114" y="113.0698">&#171;interface&#187;</text><text fill="#FFFFFF" font-family="Arial" font-size="15" lengthAdjust="spacing" textLength="35" x="132.5" y="130.3184">Logic</text></g><!--class LogicManager--><g id="elem_LogicManager"><rect codeLine="8" fill="#3333C4" height="27.2485" id="LogicManager" rx="2.5" ry="2.5" style="stroke:#FFFFFF;stroke-width:1.0;" width="97" x="101.5" y="198"/><text fill="#FFFFFF" font-family="Arial" font-size="15" lengthAdjust="spacing" textLength="91" x="104.5" y="217.0698">LogicManager</text></g><!--class Model--><g id="elem_Model"><rect codeLine="12" fill="#3333C4" height="44.4971" id="Model" rx="2.5" ry="2.5" style="stroke:#FFFFFF;stroke-width:1.0;" width="78" x="39" y="304"/><text fill="#FFFFFF" font-family="Arial" font-size="15" lengthAdjust="spacing" textLength="72" x="42" y="323.0698">&#171;interface&#187;</text><text fill="#FFFFFF" font-family="Arial" font-size="15" lengthAdjust="spacing" textLength="38" x="59" y="340.3184">Model</text></g><!--class ModelManager--><g id="elem_ModelManager"><rect codeLine="13" fill="#3333C4" height="27.2485" id="ModelManager" rx="2.5" ry="2.5" style="stroke:#FFFFFF;stroke-width:1.0;" width="100" x="23" y="408"/><text fill="#FFFFFF" font-family="Arial" font-size="15" lengthAdjust="spacing" textLength="94" x="26" y="427.0698">ModelManager</text></g><!--class Storage--><g id="elem_Storage"><rect codeLine="17" fill="#3333C4" height="44.4971" id="Storage" rx="2.5" ry="2.5" style="stroke:#FFFFFF;stroke-width:1.0;" width="78" x="188" y="304"/><text fill="#FFFFFF" font-family="Arial" font-size="15" lengthAdjust="spacing" textLength="72" x="191" y="323.0698">&#171;interface&#187;</text><text fill="#FFFFFF" font-family="Arial" font-size="15" lengthAdjust="spacing" textLength="51" x="201.5" y="340.3184">Storage</text></g><!--class StorageManager--><g id="elem_StorageManager"><rect codeLine="18" fill="#3333C4" height="27.2485" id="StorageManager" rx="2.5" ry="2.5" style="stroke:#FFFFFF;stroke-width:1.0;" width="113" x="179.5" y="408"/><text fill="#FFFFFF" font-family="Arial" font-size="15" lengthAdjust="spacing" textLength="107" x="182.5" y="427.0698">StorageManager</text></g><!--class HiddenOutside--><g id="elem_HiddenOutside"><rect codeLine="21" fill="#FFFFFF" height="27.2485" id="HiddenOutside" rx="2.5" ry="2.5" style="stroke:#FFFFFF;stroke-width:1.0;" width="102" x="99" y="7"/><text fill="#FFFFFF" font-family="Arial" font-size="15" lengthAdjust="spacing" textLength="96" x="102" y="26.0698">HiddenOutside</text></g><!--link HiddenOutside to Logic--><g id="link_HiddenOutside_Logic"><path codeLine="22" d="M150,34.11 C150,49.36 150,69.28 150,87.66 " fill="none" id="HiddenOutside-to-Logic" style="stroke:#101086;stroke-width:1.1;stroke-dasharray:7.0,7.0;"/><polygon fill="#101086" points="150,93.66,154,84.66,150,88.66,146,84.66,150,93.66" style="stroke:#101086;stroke-width:1.1;"/></g><!--reverse link Logic to LogicManager--><g id="link_Logic_LogicManager"><path codeLine="24" d="M150,156.22 C150,174.64 150,182.7 150,197.98 " fill="none" id="Logic-backto-LogicManager" style="stroke:#101086;stroke-width:1.1;stroke-dasharray:7.0,7.0;"/><polygon fill="none" points="150,138.22,144,156.22,156,156.22,150,138.22" style="stroke:#101086;stroke-width:1.1;"/></g><!--reverse link Model to ModelManager--><g id="link_Model_ModelManager"><path codeLine="25" d="M75.904,366.1941 C74.914,384.6141 74.49,392.7 73.67,407.98 " fill="none" id="Model-backto-ModelManager" style="stroke:#101086;stroke-width:1.1;stroke-dasharray:7.0,7.0;"/><polygon fill="none" points="76.87,348.22,69.9126,365.872,81.8953,366.5161,76.87,348.22" style="stroke:#101086;stroke-width:1.1;"/></g><!--reverse link Storage to StorageManager--><g id="link_Storage_StorageManager"><path codeLine="26" d="M230.7713,366.1365 C232.5513,384.5565 233.32,392.7 234.79,407.98 " fill="none" id="Storage-backto-StorageManager" style="stroke:#101086;stroke-width:1.1;stroke-dasharray:7.0,7.0;"/><polygon fill="none" points="229.04,348.22,224.7992,366.7137,236.7435,365.5594,229.04,348.22" style="stroke:#101086;stroke-width:1.1;"/></g><!--link LogicManager to Model--><g id="link_LogicManager_Model"><path codeLine="28" d="M141.74,225.41 C129.48,244.57 109.5541,275.6963 94.7841,298.7763 " fill="none" id="LogicManager-to-Model" style="stroke:#101086;stroke-width:1.1;"/><polygon fill="#101086" points="91.55,303.83,99.7704,298.4055,94.2451,299.6185,93.032,294.0933,91.55,303.83" style="stroke:#101086;stroke-width:1.1;"/></g><!--link LogicManager to Storage--><g id="link_LogicManager_Storage"><path codeLine="29" d="M158.83,225.41 C171.95,244.57 193.3321,275.798 209.1221,298.878 " fill="none" id="LogicManager-to-Storage" style="stroke:#101086;stroke-width:1.1;"/><polygon fill="#101086" points="212.51,303.83,210.7295,294.1434,209.6868,299.7033,204.1269,298.6606,212.51,303.83" style="stroke:#101086;stroke-width:1.1;"/></g><!--SRC=[XP5BQyGW58Nt_WgRhaSOw7B8ee4-84DAEyl2S56RaJWQD59As__Un5odfbCODnxl-UxnTQKCrq58weSFBLaVZfhuJfaU71mfE6VVTmV5EoEzfsks_cjMLbj7w-R-iTfNJTqyxtSt6SCrU7yBl6kT3KQSqOJqemcjfBLj5QVWP_64rKzIJGcqs6oK6QHx0oxByjL4g3ZXI4Mz1JDsElBzcxsrGke9Zk9ITeIA4uvKrFzalmpMJVE8exoKZrYHjI29gsoNkVwWX92c2ODNuqzTtyL1bbN6IdmBaZy3PQ5dNydABv6S-PBBhPENZhUCNArIrraP6tu0]--></g></svg>