<?xml version="1.0" encoding="us-ascii" standalone="no"?><svg xmlns="http://www.w3.org/2000/svg" xmlns:xlink="http://www.w3.org/1999/xlink" contentStyleType="text/css" height="540px" preserveAspectRatio="none" style="width:1020px;height:540px;background:#FFFFFF;" version="1.1" viewBox="0 0 1020 540" width="1020px" zoomAndPan="magnify"><defs/><g><rect fill="#C8C8FA" height="521.6016" style="stroke:#181818;stroke-width:0.5;" width="851" x="66" y="6"/><text fill="#FFFFFF" font-family="sans-serif" font-size="13" font-weight="bold" lengthAdjust="spacing" textLength="35" x="472" y="19.4951">Logic</text><rect fill="#F97181" height="521.6016" style="stroke:#181818;stroke-width:0.5;" width="95" x="919" y="6"/><text fill="#FFFFFF" font-family="sans-serif" font-size="13" font-weight="bold" lengthAdjust="spacing" textLength="39" x="945" y="19.4951">Model</text><rect fill="#FFFFFF" height="424.2891" style="stroke:#181818;stroke-width:1.0;" width="10" x="129" y="91.3125"/><rect fill="#FFFFFF" height="218.2734" style="stroke:#181818;stroke-width:1.0;" width="10" x="313" y="121.6641"/><rect fill="#FFFFFF" height="32.6094" style="stroke:#181818;stroke-width:1.0;" width="10" x="497.5" y="145.6641"/><rect fill="#FFFFFF" height="86.9609" style="stroke:#181818;stroke-width:1.0;" width="10" x="497.5" y="208.625"/><rect fill="#FFFFFF" height="32.6094" style="stroke:#181818;stroke-width:1.0;" width="10" x="675.5" y="232.625"/><rect fill="#FFFFFF" height="131.3125" style="stroke:#181818;stroke-width:1.0;" width="10" x="675.5" y="370.2891"/><rect fill="#FFFFFF" height="32.6094" style="stroke:#181818;stroke-width:1.0;" width="10" x="834.5" y="438.6406"/><rect fill="#FFFFFF" height="14" style="stroke:#181818;stroke-width:1.0;" width="10" x="961.5" y="400.6406"/><line style="stroke:#181818;stroke-width:0.5;stroke-dasharray:5.0,5.0;" x1="134" x2="134" y1="58.9609" y2="533.6016"/><line style="stroke:#181818;stroke-width:0.5;stroke-dasharray:5.0,5.0;" x1="318" x2="318" y1="58.9609" y2="533.6016"/><line style="stroke:#181818;stroke-width:0.5;stroke-dasharray:5.0,5.0;" x1="502" x2="502" y1="160.9688" y2="533.6016"/><line style="stroke:#181818;stroke-width:0.5;stroke-dasharray:5.0,5.0;" x1="680" x2="680" y1="247.9297" y2="533.6016"/><line style="stroke:#181818;stroke-width:0.5;stroke-dasharray:5.0,5.0;" x1="839" x2="839" y1="453.9453" y2="533.6016"/><line style="stroke:#181818;stroke-width:0.5;stroke-dasharray:5.0,5.0;" x1="966" x2="966" y1="58.9609" y2="533.6016"/><rect fill="#3333C4" height="31.6094" rx="2.5" ry="2.5" style="stroke:#181818;stroke-width:0.5;" width="108" x="80" y="26.3516"/><text fill="#FFFFFF" font-family="sans-serif" font-size="14" lengthAdjust="spacing" textLength="94" x="87" y="47.8848">:LogicManager</text><rect fill="#3333C4" height="31.6094" rx="2.5" ry="2.5" style="stroke:#181818;stroke-width:0.5;" width="144" x="246" y="26.3516"/><text fill="#FFFFFF" font-family="sans-serif" font-size="14" lengthAdjust="spacing" textLength="130" x="253" y="47.8848">:AddressBookParser</text><rect fill="#9D0012" height="31.6094" rx="2.5" ry="2.5" style="stroke:#181818;stroke-width:0.5;" width="67" x="933" y="26.3516"/><text fill="#FFFFFF" font-family="sans-serif" font-size="14" lengthAdjust="spacing" textLength="53" x="940" y="47.8848">m:Model</text><rect fill="#FFFFFF" height="424.2891" style="stroke:#181818;stroke-width:1.0;" width="10" x="129" y="91.3125"/><rect fill="#FFFFFF" height="218.2734" style="stroke:#181818;stroke-width:1.0;" width="10" x="313" y="121.6641"/><rect fill="#FFFFFF" height="32.6094" style="stroke:#181818;stroke-width:1.0;" width="10" x="497.5" y="145.6641"/><rect fill="#FFFFFF" height="86.9609" style="stroke:#181818;stroke-width:1.0;" width="10" x="497.5" y="208.625"/><rect fill="#FFFFFF" height="32.6094" style="stroke:#181818;stroke-width:1.0;" width="10" x="675.5" y="232.625"/><rect fill="#FFFFFF" height="131.3125" style="stroke:#181818;stroke-width:1.0;" width="10" x="675.5" y="370.2891"/><rect fill="#FFFFFF" height="32.6094" style="stroke:#181818;stroke-width:1.0;" width="10" x="834.5" y="438.6406"/><rect fill="#FFFFFF" height="14" style="stroke:#181818;stroke-width:1.0;" width="10" x="961.5" y="400.6406"/><polygon fill="#181818" points="117,87.3125,127,91.3125,117,95.3125,121,91.3125" style="stroke:#181818;stroke-width:1.0;"/><line style="stroke:#181818;stroke-width:1.0;" x1="0" x2="123" y1="91.3125" y2="91.3125"/><text fill="#000000" font-family="sans-serif" font-size="13" lengthAdjust="spacing" textLength="110" x="9.5" y="86.4561">execute("delete 1")</text><polygon fill="#181818" points="301,117.6641,311,121.6641,301,125.6641,305,121.6641" style="stroke:#181818;stroke-width:1.0;"/><line style="stroke:#181818;stroke-width:1.0;" x1="139" x2="307" y1="121.6641" y2="121.6641"/><text fill="#000000" font-family="sans-serif" font-size="13" lengthAdjust="spacing" textLength="155" x="148.5" y="116.8076">parseCommand("delete 1")</text><polygon fill="#181818" points="408,131.6641,418,135.6641,408,139.6641,412,135.6641" style="stroke:#181818;stroke-width:1.0;"/><line style="stroke:#181818;stroke-width:1.0;" x1="323" x2="414" y1="135.6641" y2="135.6641"/><rect fill="#3333C4" height="31.6094" rx="2.5" ry="2.5" style="stroke:#181818;stroke-width:0.5;" width="165" x="420" y="129.6641"/><text fill="#FFFFFF" font-family="sans-serif" font-size="14" lengthAdjust="spacing" textLength="151" x="427" y="151.1973">:DeleteCommandParser</text><polygon fill="#181818" points="334,174.2734,324,178.2734,334,182.2734,330,178.2734" style="stroke:#181818;stroke-width:1.0;"/><line style="stroke:#181818;stroke-width:1.0;stroke-dasharray:2.0,2.0;" x1="328" x2="501.5" y1="178.2734" y2="178.2734"/><polygon fill="#181818" points="485.5,204.625,495.5,208.625,485.5,212.625,489.5,208.625" style="stroke:#181818;stroke-width:1.0;"/><line style="stroke:#181818;stroke-width:1.0;" x1="323" x2="491.5" y1="208.625" y2="208.625"/><text fill="#000000" font-family="sans-serif" font-size="13" lengthAdjust="spacing" textLength="57" x="381.75" y="203.7686">parse("1")</text><polygon fill="#181818" points="603,218.625,613,222.625,603,226.625,607,222.625" style="stroke:#181818;stroke-width:1.0;"/><line style="stroke:#181818;stroke-width:1.0;" x1="507.5" x2="609" y1="222.625" y2="222.625"/><rect fill="#3333C4" height="31.6094" rx="2.5" ry="2.5" style="stroke:#181818;stroke-width:0.5;" width="131" x="615" y="216.625"/><text fill="#FFFFFF" font-family="sans-serif" font-size="14" lengthAdjust="spacing" textLength="117" x="622" y="238.1582">d:DeleteCommand</text><polygon fill="#181818" points="518.5,261.2344,508.5,265.2344,518.5,269.2344,514.5,265.2344" style="stroke:#181818;stroke-width:1.0;"/><line style="stroke:#181818;stroke-width:1.0;stroke-dasharray:2.0,2.0;" x1="512.5" x2="679.5" y1="265.2344" y2="265.2344"/><polygon fill="#181818" points="334,291.5859,324,295.5859,334,299.5859,330,295.5859" style="stroke:#181818;stroke-width:1.0;"/><line style="stroke:#181818;stroke-width:1.0;stroke-dasharray:2.0,2.0;" x1="328" x2="501.5" y1="295.5859" y2="295.5859"/><text fill="#000000" font-family="sans-serif" font-size="13" lengthAdjust="spacing" textLength="7" x="409.25" y="290.7295">d</text><line style="stroke:#A80036;stroke-width:2.0;" x1="493.5" x2="511.5" y1="300.5859" y2="318.5859"/><line style="stroke:#A80036;stroke-width:2.0;" x1="493.5" x2="511.5" y1="318.5859" y2="300.5859"/><polygon fill="#181818" points="150,335.9375,140,339.9375,150,343.9375,146,339.9375" style="stroke:#181818;stroke-width:1.0;"/><line style="stroke:#181818;stroke-width:1.0;stroke-dasharray:2.0,2.0;" x1="144" x2="317" y1="339.9375" y2="339.9375"/><text fill="#000000" font-family="sans-serif" font-size="13" lengthAdjust="spacing" textLength="7" x="225" y="335.0811">d</text><polygon fill="#181818" points="663.5,366.2891,673.5,370.2891,663.5,374.2891,667.5,370.2891" style="stroke:#181818;stroke-width:1.0;"/><line style="stroke:#181818;stroke-width:1.0;" x1="139" x2="669.5" y1="370.2891" y2="370.2891"/><text fill="#000000" font-family="sans-serif" font-size="13" lengthAdjust="spacing" textLength="65" x="374.75" y="365.4326">execute(m)</text><polygon fill="#181818" points="949.5,396.6406,959.5,400.6406,949.5,404.6406,953.5,400.6406" style="stroke:#181818;stroke-width:1.0;"/><line style="stroke:#181818;stroke-width:1.0;" x1="685.5" x2="955.5" y1="400.6406" y2="400.6406"/><text fill="#000000" font-family="sans-serif" font-size="13" lengthAdjust="spacing" textLength="91" x="778" y="395.7842">deletePerson(1)</text><polygon fill="#181818" points="696.5,410.6406,686.5,414.6406,696.5,418.6406,692.5,414.6406" style="stroke:#181818;stroke-width:1.0;"/><line style="stroke:#181818;stroke-width:1.0;stroke-dasharray:2.0,2.0;" x1="690.5" x2="965.5" y1="414.6406" y2="414.6406"/><polygon fill="#181818" points="764,424.6406,774,428.6406,764,432.6406,768,428.6406" style="stroke:#181818;stroke-width:1.0;"/><line style="stroke:#181818;stroke-width:1.0;" x1="685.5" x2="770" y1="428.6406" y2="428.6406"/><rect fill="#3333C4" height="31.6094" rx="2.5" ry="2.5" style="stroke:#181818;stroke-width:0.5;" width="127" x="776" y="422.6406"/><text fill="#FFFFFF" font-family="sans-serif" font-size="14" lengthAdjust="spacing" textLength="113" x="783" y="444.1738">r:CommandResult</text><polygon fill="#181818" points="696.5,467.25,686.5,471.25,696.5,475.25,692.5,471.25" style="stroke:#181818;stroke-width:1.0;"/><line style="stroke:#181818;stroke-width:1.0;stroke-dasharray:2.0,2.0;" x1="690.5" x2="838.5" y1="471.25" y2="471.25"/><polygon fill="#181818" points="150,497.6016,140,501.6016,150,505.6016,146,501.6016" style="stroke:#181818;stroke-width:1.0;"/><line style="stroke:#181818;stroke-width:1.0;stroke-dasharray:2.0,2.0;" x1="144" x2="679.5" y1="501.6016" y2="501.6016"/><text fill="#000000" font-family="sans-serif" font-size="13" lengthAdjust="spacing" textLength="4" x="407.75" y="496.7451">r</text><polygon fill="#181818" points="11,511.6016,1,515.6016,11,519.6016,7,515.6016" style="stroke:#181818;stroke-width:1.0;"/><line style="stroke:#181818;stroke-width:1.0;stroke-dasharray:2.0,2.0;" x1="5" x2="133" y1="515.6016" y2="515.6016"/><!--SRC=[bLHDJyCm3BtdLvXUs0v3shL2ayRub3Pj0cuJGbbZMBGsgP8CnhydpGfhcdICMsk_z-nd9pdZ8ikt346RhnmlocsH4xtXegIA5Z1MIdxUIc6UgYoKEUM2a9NSmLI-ymocyxk7oUjaFfq_lZuFYIKPdl6I2WD9wY0pAkWxgWIeXcQWIMtnnemfrFfAois2AbsJW-WHXMlCqU145WKLhA4HYNUhC5yc5EYcghI6FABUviPHlOX7HIjbHxgVwqmop64slxwPTiorI1t6YGReWzXoCF87dWBkCDiQx2NCsO1XqYSqC_o3sfycbX2FQPN2wQTGLX-rhRXcm28aKrXb8fiWOGrRE0RyrOybIMp9WvW5ml2uqgaD_SoYbtZkeven__6MMwKwT5j-dTDeYvrk_p4nQvJzDRNpUyuO2g3Lqm56GYarDrmAC6i4Xjee-GK5LHkhjyAy0jb4TMxbc_kivIlAYggBU7lBjIlpqh7OVPLJjnfU5Szcv1YtxuU_XCDLA_gdxcrKNsPRsoKMgBGKlM53m048sUE2HJSxhf7rOVEUdh2kd_xLyCF4Vx-ELcynmmFQ6hOwSZQNbuE1zpGreCtuDm00]--></g></svg>