<?xml version="1.0" encoding="us-ascii" standalone="no"?><svg xmlns="http://www.w3.org/2000/svg" xmlns:xlink="http://www.w3.org/1999/xlink" contentStyleType="text/css" height="626px" preserveAspectRatio="none" style="width:535px;height:626px;background:#FFFFFF;" version="1.1" viewBox="0 0 535 626" width="535px" zoomAndPan="magnify"><defs/><g><!--cluster LogicPackage--><g id="cluster_LogicPackage"><rect fill="#FFFFFF" height="539" rx="2.5" ry="2.5" style="stroke:#000000;stroke-width:1.0;" width="296" x="7" y="81"/><text fill="#000000" font-family="sans-serif" font-size="16" font-weight="bold" lengthAdjust="spacing" textLength="43" x="133.5" y="99.6094">Logic</text></g><!--cluster Model--><g id="cluster_Model"><rect fill="#FFFFFF" height="98" rx="2.5" ry="2.5" style="stroke:#000000;stroke-width:1.0;" width="157" x="354" y="416"/><text fill="#000000" font-family="sans-serif" font-size="16" font-weight="bold" lengthAdjust="spacing" textLength="46" x="409.5" y="434.6094">Model</text></g><!--class XYZCommand--><g id="elem_XYZCommand"><rect codeLine="10" fill="#3333C4" height="27.2485" id="XYZCommand" rx="2.5" ry="2.5" style="stroke:#FFFFFF;stroke-width:1.0;" width="101" x="181.5" y="577"/><text fill="#FFFFFF" font-family="Arial" font-size="15" lengthAdjust="spacing" textLength="95" x="184.5" y="596.0698">XYZCommand</text></g><!--class CommandResult--><g id="elem_CommandResult"><rect codeLine="11" fill="#3333C4" height="27.2485" id="CommandResult" rx="2.5" ry="2.5" style="stroke:#FFFFFF;stroke-width:1.0;" width="117" x="169.5" y="300.5"/><text fill="#FFFFFF" font-family="Arial" font-size="15" lengthAdjust="spacing" textLength="111" x="172.5" y="319.5698">CommandResult</text></g><!--class Command--><g id="elem_Command"><rect codeLine="12" fill="#3333C4" height="44.4971" id="Command" rx="2.5" ry="2.5" style="stroke:#FFFFFF;stroke-width:1.0;" width="75" x="194.5" y="454.5"/><text fill="#FFFFFF" font-family="Arial" font-size="15" lengthAdjust="spacing" textLength="63" x="200.5" y="473.5698">{abstract}</text><text fill="#FFFFFF" font-family="Arial" font-size="15" lengthAdjust="spacing" textLength="69" x="197.5" y="490.8184">Command</text></g><!--class Logic--><g id="elem_Logic"><rect codeLine="15" fill="#3333C4" height="44.4971" id="Logic" rx="2.5" ry="2.5" style="stroke:#FFFFFF;stroke-width:1.0;" width="78" x="209" y="120"/><text fill="#FFFFFF" font-family="Arial" font-size="15" lengthAdjust="spacing" textLength="72" x="212" y="139.0698">&#171;interface&#187;</text><text fill="#FFFFFF" font-family="Arial" font-size="15" lengthAdjust="spacing" textLength="35" x="230.5" y="156.3184">Logic</text></g><!--class LogicManager--><g id="elem_LogicManager"><rect codeLine="16" fill="#3333C4" height="27.2485" id="LogicManager" rx="2.5" ry="2.5" style="stroke:#FFFFFF;stroke-width:1.0;" width="97" x="76.5" y="128.5"/><text fill="#FFFFFF" font-family="Arial" font-size="15" lengthAdjust="spacing" textLength="91" x="79.5" y="147.5698">LogicManager</text></g><rect fill="#FFFFFF" height="60.25" rx="2.5" ry="2.5" style="stroke:#181818;stroke-width:1.0;" width="135" x="23.5" y="194"/><text fill="#000000" font-family="sans-serif" font-size="16" font-weight="bold" lengthAdjust="spacing" textLength="115" x="33.5" y="212.6094">Parser Classes</text><!--class HiddenModel--><g id="elem_HiddenModel"><rect codeLine="20" fill="#FFFFFF" height="27.2485" id="HiddenModel" rx="2.5" ry="2.5" style="stroke:#FFFFFF;stroke-width:1.0;" width="89" x="397.5" y="463"/><text fill="#FFFFFF" font-family="Arial" font-size="15" lengthAdjust="spacing" textLength="83" x="400.5" y="482.0698">HiddenModel</text></g><rect fill="#FFFFFF" height="60.25" rx="2.5" ry="2.5" style="stroke:#181818;stroke-width:1.0;" width="80" x="322" y="284"/><text fill="#000000" font-family="sans-serif" font-size="16" font-weight="bold" lengthAdjust="spacing" textLength="60" x="332" y="302.6094">Storage</text><!--class HiddenOutside--><g id="elem_HiddenOutside"><rect codeLine="26" fill="#FFFFFF" height="27.2485" id="HiddenOutside" rx="2.5" ry="2.5" style="stroke:#FFFFFF;stroke-width:1.0;" width="102" x="197" y="7"/><text fill="#FFFFFF" font-family="Arial" font-size="15" lengthAdjust="spacing" textLength="96" x="200" y="26.0698">HiddenOutside</text></g><g id="elem_GMN27"><path d="M319.5,569 L319.5,586.5 L282.62,590.5 L319.5,594.5 L319.5,611.7031 A0,0 0 0 0 319.5,611.7031 L528.5,611.7031 A0,0 0 0 0 528.5,611.7031 L528.5,579 L518.5,569 L319.5,569 A0,0 0 0 0 319.5,569 " fill="#FEFFDD" style="stroke:#181818;stroke-width:0.5;"/><path d="M518.5,569 L518.5,579 L528.5,579 L518.5,569 " fill="#FEFFDD" style="stroke:#181818;stroke-width:0.5;"/><text fill="#000000" font-family="sans-serif" font-size="13" lengthAdjust="spacing" textLength="184" x="325.5" y="587.4951">XYZCommand = AddCommand,</text><text fill="#000000" font-family="sans-serif" font-size="13" lengthAdjust="spacing" textLength="110" x="364.5" y="603.8467">FindCommand, etc</text></g><!--link HiddenOutside to Logic--><g id="link_HiddenOutside_Logic"><path codeLine="27" d="M248,34.29 C248,54.76 248,89.1 248,113.89 " fill="none" id="HiddenOutside-to-Logic" style="stroke:#101086;stroke-width:1.1;stroke-dasharray:7.0,7.0;"/><polygon fill="#101086" points="248,119.89,252,110.89,248,114.89,244,110.89,248,119.89" style="stroke:#101086;stroke-width:1.1;"/></g><!--link LogicManager to Logic--><g id="link_LogicManager_Logic"><path codeLine="29" d="M173.53,142 C185.26,142 178.99,142 190.73,142 " fill="none" id="LogicManager-to-Logic" style="stroke:#101086;stroke-width:1.1;stroke-dasharray:7.0,7.0;"/><polygon fill="none" points="208.73,142,190.73,136,190.73,148,208.73,142" style="stroke:#101086;stroke-width:1.1;"/></g><!--link LogicManager to ParserClasses--><g id="link_LogicManager_ParserClasses"><path codeLine="30" d="M119.54,155.85 C115.18,166.1 111.2567,175.3279 105.7067,188.3879 " fill="none" id="LogicManager-to-ParserClasses" style="stroke:#101086;stroke-width:1.1;"/><polygon fill="#101086" points="103.36,193.91,110.5614,187.1914,105.3156,189.3083,103.1986,184.0625,103.36,193.91" style="stroke:#101086;stroke-width:1.1;"/><text fill="#000000" font-family="sans-serif" font-size="13" font-weight="bold" lengthAdjust="spacing" textLength="7" x="98.2981" y="183.084">1</text></g><!--link ParserClasses to XYZCommand--><g id="link_ParserClasses_XYZCommand"><path codeLine="31" d="M78.05,254.16 C64.87,288.14 48.52,345.54 65,392 C94.8,476 174.0628,544.7849 210.2928,573.1049 " fill="none" id="ParserClasses-to-XYZCommand" style="stroke:#101086;stroke-width:1.1;stroke-dasharray:7.0,7.0;"/><polygon fill="#101086" points="215.02,576.8,210.3926,568.1059,211.0807,573.7207,205.4658,574.4088,215.02,576.8" style="stroke:#101086;stroke-width:1.1;"/><text fill="#000000" font-family="sans-serif" font-size="13" font-weight="bold" lengthAdjust="spacing" textLength="54" x="66" y="388.4951">&#171;create&#187;</text></g><!--reverse link Command to XYZCommand--><g id="link_Command_XYZCommand"><path codeLine="33" d="M232,516.57 C232,539.63 232,557.86 232,576.88 " fill="none" id="Command-backto-XYZCommand" style="stroke:#101086;stroke-width:1.1;"/><polygon fill="none" points="232,498.57,226,516.57,238,516.57,232,498.57" style="stroke:#101086;stroke-width:1.1;"/></g><!--reverse link Command to LogicManager--><g id="link_Command_LogicManager"><path codeLine="34" d="M198.486,450.6203 C169.406,427.3403 130.99,390.69 113,344 C103.41,319.12 100.18,307.38 113,284 C124.91,262.27 148.09,275.73 160,254 C172.82,230.62 167.9,219.47 160,194 C155.48,179.44 145.21,165.34 136.95,155.67 " fill="none" id="Command-backto-LogicManager" style="stroke:#101086;stroke-width:1.1;stroke-dasharray:7.0,7.0;"/><polygon fill="#101086" points="203.17,454.37,198.6439,445.6228,199.2667,451.2452,193.6442,451.868,203.17,454.37" style="stroke:#101086;stroke-width:1.1;"/><text fill="#000000" font-family="sans-serif" font-size="13" font-weight="bold" lengthAdjust="spacing" textLength="37" x="114" y="319.4951">&#171;call&#187;</text></g><!--link LogicManager to Model--><g id="link_LogicManager_Model"><path codeLine="36" d="M163.98,155.5 C237.68,180.06 392.56,236.34 420,284 C433.3,307.11 427.73,318.48 420,344 C412.57,368.54 403.59,371.64 388,392 C385.13,395.75 383.19,395.82 381,400 C379.055,403.7113 377.3025,407.6308 375.7244,411.6537 C375.3299,412.6595 374.9462,413.6717 374.5732,414.6887 C374.48,414.943 374.3874,415.1975 374.2955,415.4523 C374.2495,415.5798 376.2249,410.0579 376.1793,410.1855 " fill="none" id="LogicManager-to-Model" style="stroke:#101086;stroke-width:1.1;"/><polygon fill="#101086" points="374.1581,415.8348,380.9561,408.7083,375.8424,411.127,373.4237,406.0134,374.1581,415.8348" style="stroke:#101086;stroke-width:1.1;"/></g><!--link LogicManager to Storage--><g id="link_LogicManager_Storage"><path codeLine="37" d="M143.65,155.65 C158.67,165.88 180.29,180.73 199,194 C241.58,224.21 284.9834,255.9958 317.8634,280.2758 " fill="none" id="LogicManager-to-Storage" style="stroke:#101086;stroke-width:1.1;"/><polygon fill="#101086" points="322.69,283.84,317.8262,275.2759,318.6678,280.8698,313.0739,281.7115,322.69,283.84" style="stroke:#101086;stroke-width:1.1;"/></g><!--link Storage to Model--><!--reverse link Storage to Command--><!--link Command to Model--><g id="link_Command_Model"><path codeLine="40" d="M269.58,476.5 C284.925,476.5 300.2675,476.5 315.61,476.5 C323.2813,476.5 330.9525,476.5 338.6241,476.5 C342.4598,476.5 346.2957,476.5 350.1317,476.5 C351.0907,476.5 352.0497,476.5 353.0087,476.5 C353.2484,476.5 347.4882,476.5 347.7279,476.5 " fill="none" id="Command-to-Model" style="stroke:#101086;stroke-width:1.1;stroke-dasharray:7.0,7.0;"/><polygon fill="#101086" points="353.7279,476.5,344.7279,472.5,348.7279,476.5,344.7279,480.5,353.7279,476.5" style="stroke:#101086;stroke-width:1.1;"/></g><!--link Logic to CommandResult--><g id="link_Logic_CommandResult"><path codeLine="43" d="M245.51,164.19 C241.3,199.97 233.6127,265.3413 230.1927,294.3413 " fill="none" id="Logic-to-CommandResult" style="stroke:#101086;stroke-width:1.1;stroke-dasharray:7.0,7.0;"/><polygon fill="#101086" points="229.49,300.3,234.5165,291.8304,230.0756,295.3344,226.5716,290.8935,229.49,300.3" style="stroke:#101086;stroke-width:1.1;"/></g><!--link LogicManager to CommandResult--><g id="link_LogicManager_CommandResult"><path codeLine="44" d="M139.68,155.75 C150.21,165.45 164.22,179.57 174,194 C198.19,229.68 214.2803,272.2722 221.9703,294.7822 " fill="none" id="LogicManager-to-CommandResult" style="stroke:#101086;stroke-width:1.1;stroke-dasharray:7.0,7.0;"/><polygon fill="#101086" points="223.91,300.46,224.7857,290.6501,222.2936,295.7285,217.2153,293.2364,223.91,300.46" style="stroke:#101086;stroke-width:1.1;"/></g><!--reverse link CommandResult to Command--><g id="link_CommandResult_Command"><path codeLine="45" d="M228.4609,333.5881 C229.1509,361.0081 230.63,420.35 231.47,454.26 " fill="none" id="CommandResult-backto-Command" style="stroke:#101086;stroke-width:1.1;stroke-dasharray:7.0,7.0;"/><polygon fill="#101086" points="228.31,327.59,224.5377,336.6878,228.4358,332.5884,232.5351,336.4865,228.31,327.59" style="stroke:#101086;stroke-width:1.1;"/><text fill="#000000" font-family="sans-serif" font-size="13" font-weight="bold" lengthAdjust="spacing" textLength="54" x="230" y="388.4951">&#171;create&#187;</text></g><!--SRC=[PL9TQyCW57ttLxZiTH4AUofPO0jq6xIaT7lOHqTnqQPIeq4DPNJzxqkD9d7Da_USSw_d7dF5HC4RGg4sFvoYkgauq7icQgnm1R5Iyl2wOyLUKAtX14t-avdaKi5v_lYSRR9ydgyshxSZJS6nrW-us9TADe9Sg06eMnAN5CvboGg8TNTOElGu2A8bLfegc9r7KXsTjHtaa2Cu0Nk4R-yVcQmgB8W3NBMYkk76OT4HVskZS65EQ-44TgXl1LwO94mOghQue6cw5jPWr5jrAdjUOD5QLQsHtlP24ihRFJhL4oE4YWwxdjblB7unKdLhdq3GaJT6i_QLV4-88fGwBs1i0oB5ofr1lvuDoDYISHfDeZ1745Hs-10edC8aAHJ5fiq2W14HDtNStkJJ2urmkZMe9xiXcFFpYD1Kd7Q9NS8k6-0pYkFFdKtXotNuuSZZJOs6jfxjCl7N26aej12Ksz6Uq_7ET_2U45VSmBMOCJ6KrFZORLJXhnQcGEH1N4XwOzPkm0LX_m40]--></g></svg>