<?xml version="1.0" encoding="us-ascii" standalone="no"?><svg xmlns="http://www.w3.org/2000/svg" xmlns:xlink="http://www.w3.org/1999/xlink" contentStyleType="text/css" height="769px" preserveAspectRatio="none" style="width:847px;height:769px;background:#FFFFFF;" version="1.1" viewBox="0 0 847 769" width="847px" zoomAndPan="magnify"><defs/><g><!--cluster ModelPackage--><g id="cluster_ModelPackage"><rect fill="#FFFFFF" height="705" rx="2.5" ry="2.5" style="stroke:#181818;stroke-width:1.0;" width="834" x="7" y="58"/><text fill="#000000" font-family="sans-serif" font-size="14" font-weight="bold" lengthAdjust="spacing" textLength="44" x="402" y="74.5332">Model</text></g><!--class ReadOnlyAddressBook--><g id="elem_ReadOnlyAddressBook"><rect codeLine="7" fill="#9D0012" height="44.4971" id="ReadOnlyAddressBook" rx="2.5" ry="2.5" style="stroke:#FFFFFF;stroke-width:1.0;" width="158" x="301" y="94"/><text fill="#FFFFFF" font-family="Arial" font-size="15" lengthAdjust="spacing" textLength="72" x="344" y="113.0698">&#171;interface&#187;</text><text fill="#FFFFFF" font-family="Arial" font-size="15" lengthAdjust="spacing" textLength="152" x="304" y="130.3184">ReadOnlyAddressBook</text></g><!--class ReadOnlyUserPrefs--><g id="elem_ReadOnlyUserPrefs"><rect codeLine="8" fill="#9D0012" height="44.4971" id="ReadOnlyUserPrefs" rx="2.5" ry="2.5" style="stroke:#FFFFFF;stroke-width:1.0;" width="137" x="687.5" y="94"/><text fill="#FFFFFF" font-family="Arial" font-size="15" lengthAdjust="spacing" textLength="72" x="720" y="113.0698">&#171;interface&#187;</text><text fill="#FFFFFF" font-family="Arial" font-size="15" lengthAdjust="spacing" textLength="131" x="690.5" y="130.3184">ReadOnlyUserPrefs</text></g><!--class ReadOnlyMatchRecord--><g id="elem_ReadOnlyMatchRecord"><rect codeLine="9" fill="#9D0012" height="44.4971" id="ReadOnlyMatchRecord" rx="2.5" ry="2.5" style="stroke:#FFFFFF;stroke-width:1.0;" width="158" x="494" y="94"/><text fill="#FFFFFF" font-family="Arial" font-size="15" lengthAdjust="spacing" textLength="72" x="537" y="113.0698">&#171;interface&#187;</text><text fill="#FFFFFF" font-family="Arial" font-size="15" lengthAdjust="spacing" textLength="152" x="497" y="130.3184">ReadOnlyMatchRecord</text></g><!--class Model--><g id="elem_Model"><rect codeLine="10" fill="#9D0012" height="44.4971" id="Model" rx="2.5" ry="2.5" style="stroke:#FFFFFF;stroke-width:1.0;" width="78" x="188" y="94"/><text fill="#FFFFFF" font-family="Arial" font-size="15" lengthAdjust="spacing" textLength="72" x="191" y="113.0698">&#171;interface&#187;</text><text fill="#FFFFFF" font-family="Arial" font-size="15" lengthAdjust="spacing" textLength="38" x="208" y="130.3184">Model</text></g><!--class AddressBook--><g id="elem_AddressBook"><rect codeLine="11" fill="#9D0012" height="27.2485" id="AddressBook" rx="2.5" ry="2.5" style="stroke:#FFFFFF;stroke-width:1.0;" width="93" x="383.5" y="198"/><text fill="#FFFFFF" font-family="Arial" font-size="15" lengthAdjust="spacing" textLength="87" x="386.5" y="217.0698">AddressBook</text></g><!--class ModelManager--><g id="elem_ModelManager"><rect codeLine="12" fill="#9D0012" height="27.2485" id="ModelManager" rx="2.5" ry="2.5" style="stroke:#FFFFFF;stroke-width:1.0;" width="100" x="248" y="198"/><text fill="#FFFFFF" font-family="Arial" font-size="15" lengthAdjust="spacing" textLength="94" x="251" y="217.0698">ModelManager</text></g><!--class UserPrefs--><g id="elem_UserPrefs"><rect codeLine="13" fill="#9D0012" height="27.2485" id="UserPrefs" rx="2.5" ry="2.5" style="stroke:#FFFFFF;stroke-width:1.0;" width="72" x="687" y="198"/><text fill="#FFFFFF" font-family="Arial" font-size="15" lengthAdjust="spacing" textLength="66" x="690" y="217.0698">UserPrefs</text></g><!--class UniquePersonList--><g id="elem_UniquePersonList"><rect codeLine="15" fill="#9D0012" height="27.2485" id="UniquePersonList" rx="2.5" ry="2.5" style="stroke:#FFFFFF;stroke-width:1.0;" width="121" x="402.5" y="285"/><text fill="#FFFFFF" font-family="Arial" font-size="15" lengthAdjust="spacing" textLength="115" x="405.5" y="304.0698">UniquePersonList</text></g><!--class Person--><g id="elem_Person"><rect codeLine="16" fill="#9D0012" height="27.2485" id="Person" rx="2.5" ry="2.5" style="stroke:#FFFFFF;stroke-width:1.0;" width="53" x="315.5" y="459"/><text fill="#FFFFFF" font-family="Arial" font-size="15" lengthAdjust="spacing" textLength="47" x="318.5" y="478.0698">Person</text></g><!--class EntityStatisticMap--><g id="elem_EntityStatisticMap"><rect codeLine="17" fill="#9D0012" height="27.2485" id="EntityStatisticMap" rx="2.5" ry="2.5" style="stroke:#FFFFFF;stroke-width:1.0;" width="121" x="278.5" y="546"/><text fill="#FFFFFF" font-family="Arial" font-size="15" lengthAdjust="spacing" textLength="115" x="281.5" y="565.0698">EntityStatisticMap</text></g><!--class Email--><g id="elem_Email"><rect codeLine="18" fill="#9D0012" height="27.2485" id="Email" rx="2.5" ry="2.5" style="stroke:#FFFFFF;stroke-width:1.0;" width="50" x="435" y="546"/><text fill="#FFFFFF" font-family="Arial" font-size="15" lengthAdjust="spacing" textLength="37" x="441.5" y="565.0698">Email</text></g><!--class Name--><g id="elem_Name"><rect codeLine="19" fill="#9D0012" height="27.2485" id="Name" rx="2.5" ry="2.5" style="stroke:#FFFFFF;stroke-width:1.0;" width="50" x="108" y="546"/><text fill="#FFFFFF" font-family="Arial" font-size="15" lengthAdjust="spacing" textLength="39" x="113.5" y="565.0698">Name</text></g><!--class Phone--><g id="elem_Phone"><rect codeLine="20" fill="#9D0012" height="27.2485" id="Phone" rx="2.5" ry="2.5" style="stroke:#FFFFFF;stroke-width:1.0;" width="50" x="193" y="546"/><text fill="#FFFFFF" font-family="Arial" font-size="15" lengthAdjust="spacing" textLength="42" x="197" y="565.0698">Phone</text></g><!--class Tag--><g id="elem_Tag"><rect codeLine="21" fill="#9D0012" height="27.2485" id="Tag" rx="2.5" ry="2.5" style="stroke:#FFFFFF;stroke-width:1.0;" width="50" x="520" y="546"/><text fill="#FFFFFF" font-family="Arial" font-size="15" lengthAdjust="spacing" textLength="25" x="532.5" y="565.0698">Tag</text></g><!--class Role--><g id="elem_Role"><rect codeLine="22" fill="#9D0012" height="27.2485" id="Role" rx="2.5" ry="2.5" style="stroke:#FFFFFF;stroke-width:1.0;" width="50" x="605" y="546"/><text fill="#FFFFFF" font-family="Arial" font-size="15" lengthAdjust="spacing" textLength="30" x="615" y="565.0698">Role</text></g><!--class IGN--><g id="elem_IGN"><rect codeLine="23" fill="#9D0012" height="27.2485" id="IGN" rx="2.5" ry="2.5" style="stroke:#FFFFFF;stroke-width:1.0;" width="50" x="744" y="633"/><text fill="#FFFFFF" font-family="Arial" font-size="15" lengthAdjust="spacing" textLength="24" x="757" y="652.0698">IGN</text></g><!--class Rank--><g id="elem_Rank"><rect codeLine="24" fill="#9D0012" height="27.2485" id="Rank" rx="2.5" ry="2.5" style="stroke:#FFFFFF;stroke-width:1.0;" width="50" x="23" y="546"/><text fill="#FFFFFF" font-family="Arial" font-size="15" lengthAdjust="spacing" textLength="34" x="31" y="565.0698">Rank</text></g><!--class Statistics--><g id="elem_Statistics"><rect codeLine="25" fill="#9D0012" height="27.2485" id="Statistics" rx="2.5" ry="2.5" style="stroke:#FFFFFF;stroke-width:1.0;" width="66" x="376" y="633"/><text fill="#FFFFFF" font-family="Arial" font-size="15" lengthAdjust="spacing" textLength="60" x="379" y="652.0698">Statistics</text></g><!--class Kills--><g id="elem_Kills"><rect codeLine="26" fill="#9D0012" height="27.2485" id="Kills" rx="2.5" ry="2.5" style="stroke:#FFFFFF;stroke-width:1.0;" width="50" x="297" y="720"/><text fill="#FFFFFF" font-family="Arial" font-size="15" lengthAdjust="spacing" textLength="27" x="308.5" y="739.0698">Kills</text></g><!--class Deaths--><g id="elem_Deaths"><rect codeLine="27" fill="#9D0012" height="27.2485" id="Deaths" rx="2.5" ry="2.5" style="stroke:#FFFFFF;stroke-width:1.0;" width="53" x="382.5" y="720"/><text fill="#FFFFFF" font-family="Arial" font-size="15" lengthAdjust="spacing" textLength="47" x="385.5" y="739.0698">Deaths</text></g><!--class Assists--><g id="elem_Assists"><rect codeLine="28" fill="#9D0012" height="27.2485" id="Assists" rx="2.5" ry="2.5" style="stroke:#FFFFFF;stroke-width:1.0;" width="54" x="471" y="720"/><text fill="#FFFFFF" font-family="Arial" font-size="15" lengthAdjust="spacing" textLength="48" x="474" y="739.0698">Assists</text></g><!--class MatchRecord--><g id="elem_MatchRecord"><rect codeLine="29" fill="#9D0012" height="27.2485" id="MatchRecord" rx="2.5" ry="2.5" style="stroke:#FFFFFF;stroke-width:1.0;" width="93" x="526.5" y="198"/><text fill="#FFFFFF" font-family="Arial" font-size="15" lengthAdjust="spacing" textLength="87" x="529.5" y="217.0698">MatchRecord</text></g><!--class MatchList--><g id="elem_MatchList"><rect codeLine="30" fill="#9D0012" height="27.2485" id="MatchList" rx="2.5" ry="2.5" style="stroke:#FFFFFF;stroke-width:1.0;" width="68" x="559" y="285"/><text fill="#FFFFFF" font-family="Arial" font-size="15" lengthAdjust="spacing" textLength="62" x="562" y="304.0698">MatchList</text></g><!--class Match--><g id="elem_Match"><rect codeLine="31" fill="#9D0012" height="27.2485" id="Match" rx="2.5" ry="2.5" style="stroke:#FFFFFF;stroke-width:1.0;" width="50" x="568" y="372"/><text fill="#FFFFFF" font-family="Arial" font-size="15" lengthAdjust="spacing" textLength="39" x="573.5" y="391.0698">Match</text></g><!--class Result--><g id="elem_Result"><rect codeLine="32" fill="#9D0012" height="27.2485" id="Result" rx="2.5" ry="2.5" style="stroke:#FFFFFF;stroke-width:1.0;" width="50" x="484" y="459"/><text fill="#FFFFFF" font-family="Arial" font-size="15" lengthAdjust="spacing" textLength="42" x="488" y="478.0698">Result</text></g><!--class LocalDate--><g id="elem_LocalDate"><rect codeLine="33" fill="#9D0012" height="27.2485" id="LocalDate" rx="2.5" ry="2.5" style="stroke:#FFFFFF;stroke-width:1.0;" width="72" x="569" y="459"/><text fill="#FFFFFF" font-family="Arial" font-size="15" lengthAdjust="spacing" textLength="66" x="572" y="478.0698">LocalDate</text></g><!--class PlayersInMatch--><g id="elem_PlayersInMatch"><rect codeLine="34" fill="#9D0012" height="27.2485" id="PlayersInMatch" rx="2.5" ry="2.5" style="stroke:#FFFFFF;stroke-width:1.0;" width="105" x="682.5" y="459"/><text fill="#FFFFFF" font-family="Arial" font-size="15" lengthAdjust="spacing" textLength="99" x="685.5" y="478.0698">PlayersInMatch</text></g><!--class PlayerInMatch--><g id="elem_PlayerInMatch"><rect codeLine="35" fill="#9D0012" height="27.2485" id="PlayerInMatch" rx="2.5" ry="2.5" style="stroke:#FFFFFF;stroke-width:1.0;" width="97" x="690.5" y="546"/><text fill="#FFFFFF" font-family="Arial" font-size="15" lengthAdjust="spacing" textLength="91" x="693.5" y="565.0698">PlayerInMatch</text></g><!--class Entity--><g id="elem_Entity"><rect codeLine="36" fill="#9D0012" height="27.2485" id="Entity" rx="2.5" ry="2.5" style="stroke:#FFFFFF;stroke-width:1.0;" width="50" x="548" y="633"/><text fill="#FFFFFF" font-family="Arial" font-size="15" lengthAdjust="spacing" textLength="36" x="555" y="652.0698">Entity</text></g><!--class I--><g id="elem_I"><rect codeLine="38" fill="#FFFFFF" height="27.2485" id="I" rx="2.5" ry="2.5" style="stroke:#FFFFFF;stroke-width:1.0;" width="50" x="317" y="285"/><text fill="#FFFFFF" font-family="Arial" font-size="15" lengthAdjust="spacing" textLength="3" x="340.5" y="304.0698">I</text></g><!--class HiddenOutside--><g id="elem_HiddenOutside"><rect codeLine="41" fill="#FFFFFF" height="27.2485" id="HiddenOutside" rx="2.5" ry="2.5" style="stroke:#FFFFFF;stroke-width:1.0;" width="102" x="176" y="7"/><text fill="#FFFFFF" font-family="Arial" font-size="15" lengthAdjust="spacing" textLength="96" x="179" y="26.0698">HiddenOutside</text></g><!--link HiddenOutside to Model--><g id="link_HiddenOutside_Model"><path codeLine="42" d="M227,34.11 C227,49.36 227,69.28 227,87.66 " fill="none" id="HiddenOutside-to-Model" style="stroke:#9D0012;stroke-width:1.1;stroke-dasharray:7.0,7.0;"/><polygon fill="#9D0012" points="227,93.66,231,84.66,227,88.66,223,84.66,227,93.66" style="stroke:#9D0012;stroke-width:1.1;"/></g><!--reverse link ReadOnlyAddressBook to AddressBook--><g id="link_ReadOnlyAddressBook_AddressBook"><path codeLine="44" d="M399.838,154.093 C409.688,172.513 415.14,182.7 423.3,197.98 " fill="none" id="ReadOnlyAddressBook-backto-AddressBook" style="stroke:#9D0012;stroke-width:1.1;stroke-dasharray:7.0,7.0;"/><polygon fill="none" points="391.35,138.22,394.547,156.9224,405.129,151.2637,391.35,138.22" style="stroke:#9D0012;stroke-width:1.1;"/></g><!--reverse link ReadOnlyMatchRecord to MatchRecord--><g id="link_ReadOnlyMatchRecord_MatchRecord"><path codeLine="45" d="M573,156.22 C573,174.64 573,182.7 573,197.98 " fill="none" id="ReadOnlyMatchRecord-backto-MatchRecord" style="stroke:#9D0012;stroke-width:1.1;stroke-dasharray:7.0,7.0;"/><polygon fill="none" points="573,138.22,567,156.22,579,156.22,573,138.22" style="stroke:#9D0012;stroke-width:1.1;"/></g><!--reverse link Model to ModelManager--><g id="link_Model_ModelManager"><path codeLine="47" d="M253.997,152.5544 C267.987,170.9744 276.89,182.7 288.49,197.98 " fill="none" id="Model-backto-ModelManager" style="stroke:#9D0012;stroke-width:1.1;stroke-dasharray:7.0,7.0;"/><polygon fill="none" points="243.11,138.22,249.2188,156.1834,258.7751,148.9254,243.11,138.22" style="stroke:#9D0012;stroke-width:1.1;"/></g><!--link Model to ReadOnlyUserPrefs--><g id="link_Model_ReadOnlyUserPrefs"><path codeLine="48" d="M239.5,93.72 C252.13,74.21 273.71,48.05 301.5,42 C339.61,33.7 614.39,33.7 652.5,42 C685.95,49.28 712.5852,70.6496 731.7452,89.6996 " fill="none" id="Model-to-ReadOnlyUserPrefs" style="stroke:#9D0012;stroke-width:1.1;stroke-dasharray:7.0,7.0;"/><polygon fill="#9D0012" points="736,93.93,732.438,84.7478,732.4543,90.4047,726.7975,90.4209,736,93.93" style="stroke:#9D0012;stroke-width:1.1;"/></g><!--reverse link ReadOnlyAddressBook to Model--><g id="link_ReadOnlyAddressBook_Model"><path codeLine="49" d="M294.84,116 C283.27,116 277.71,116 266.15,116 " fill="none" id="ReadOnlyAddressBook-backto-Model" style="stroke:#9D0012;stroke-width:1.1;stroke-dasharray:7.0,7.0;"/><polygon fill="#9D0012" points="300.84,116,291.84,112,295.84,116,291.84,120,300.84,116" style="stroke:#9D0012;stroke-width:1.1;"/></g><!--link Model to ReadOnlyMatchRecord--><g id="link_Model_ReadOnlyMatchRecord"><path codeLine="50" d="M242.21,93.92 C252.69,79.95 267.65,62.27 284,50 C290.84,44.87 293.14,43.82 301.5,42 C335.81,34.53 425.19,34.53 459.5,42 C494.9,49.71 524.2815,70.9496 545.6615,89.8196 " fill="none" id="Model-to-ReadOnlyMatchRecord" style="stroke:#9D0012;stroke-width:1.1;stroke-dasharray:7.0,7.0;"/><polygon fill="#9D0012" points="550.16,93.79,546.0592,84.8355,546.4113,90.4814,540.7654,90.8334,550.16,93.79" style="stroke:#9D0012;stroke-width:1.1;"/></g><!--reverse link AddressBook to ModelManager--><g id="link_AddressBook_ModelManager"><path codeLine="51" d="M377.24,211.5 C365.5,211.5 359.76,211.5 348.02,211.5 " fill="none" id="AddressBook-backto-ModelManager" style="stroke:#9D0012;stroke-width:1.1;"/><polygon fill="#9D0012" points="383.24,211.5,374.24,207.5,378.24,211.5,374.24,215.5,383.24,211.5" style="stroke:#9D0012;stroke-width:1.1;"/><text fill="#000000" font-family="sans-serif" font-size="13" font-weight="bold" lengthAdjust="spacing" textLength="7" x="368.5439" y="207.778">1</text></g><!--link ModelManager to MatchRecord--><g id="link_ModelManager_MatchRecord"><path codeLine="52" d="M318.01,197.87 C334.7,187.39 359.53,173.75 383.5,168 C423.69,158.36 436.09,159.31 476.5,168 C503.09,173.72 525.9405,184.4544 544.9105,194.9544 " fill="none" id="ModelManager-to-MatchRecord" style="stroke:#9D0012;stroke-width:1.1;"/><polygon fill="#9D0012" points="550.16,197.86,544.2228,190.0019,545.7854,195.4386,540.3487,197.0012,550.16,197.86" style="stroke:#9D0012;stroke-width:1.1;"/><text fill="#000000" font-family="sans-serif" font-size="13" font-weight="bold" lengthAdjust="spacing" textLength="7" x="533.1179" y="187.1245">1</text></g><!--link ModelManager to UserPrefs--><g id="link_ModelManager_UserPrefs"><path codeLine="53" d="M318.01,197.87 C334.7,187.39 359.53,173.75 383.5,168 C485.5,143.54 516.68,147.27 619.5,168 C647.78,173.7 672.6135,184.6073 693.0435,195.1073 " fill="none" id="ModelManager-to-UserPrefs" style="stroke:#9D0012;stroke-width:1.1;"/><polygon fill="#9D0012" points="698.38,197.85,692.2038,190.1784,693.933,195.5644,688.5469,197.2936,698.38,197.85" style="stroke:#9D0012;stroke-width:1.1;"/><text fill="#000000" font-family="sans-serif" font-size="13" font-weight="bold" lengthAdjust="spacing" textLength="7" x="680.6593" y="187.1107">1</text></g><!--reverse link ReadOnlyUserPrefs to UserPrefs--><g id="link_ReadOnlyUserPrefs_UserPrefs"><path codeLine="54" d="M742.5202,155.1942 C736.0202,173.6142 732.81,182.7 727.42,197.98 " fill="none" id="ReadOnlyUserPrefs-backto-UserPrefs" style="stroke:#9D0012;stroke-width:1.1;stroke-dasharray:7.0,7.0;"/><polygon fill="none" points="748.51,138.22,736.8621,153.1976,748.1783,157.1908,748.51,138.22" style="stroke:#9D0012;stroke-width:1.1;"/></g><!--link AddressBook to UniquePersonList--><g id="link_AddressBook_UniquePersonList"><path codeLine="56" d="M439.2136,236.2263 C445.4536,252.2963 449.6887,263.2167 455.9387,279.3167 " fill="none" id="AddressBook-UniquePersonList" style="stroke:#9D0012;stroke-width:1.1;"/><polygon fill="#9D0012" points="434.87,225.04,433.3131,232.081,439.2136,236.2263,440.7706,229.1853,434.87,225.04" style="stroke:#9D0012;stroke-width:1.1;"/><polygon fill="#9D0012" points="458.11,284.91,458.5819,275.0725,456.3006,280.2489,451.1241,277.9676,458.11,284.91" style="stroke:#9D0012;stroke-width:1.1;"/><text fill="#000000" font-family="sans-serif" font-size="13" font-weight="bold" lengthAdjust="spacing" textLength="7" x="447.9113" y="274.1936">1</text></g><!--link UniquePersonList to Person--><g id="link_UniquePersonList_Person"><path codeLine="57" d="M454.1,312.15 C431.73,343.96 376.7528,422.103 354.3628,453.923 " fill="none" id="UniquePersonList-to-Person" style="stroke:#9D0012;stroke-width:1.1;"/><polygon fill="#9D0012" points="350.91,458.83,359.3605,453.7714,353.7873,454.7409,352.8178,449.1677,350.91,458.83" style="stroke:#9D0012;stroke-width:1.1;"/><text fill="#000000" font-family="sans-serif" font-size="13" font-weight="bold" lengthAdjust="spacing" textLength="25" x="359.0726" y="448.0831">* all</text></g><!--link UniquePersonList to Match--><g id="link_UniquePersonList_Match"><path codeLine="58" d="M482.18,312.04 C506.76,328.11 544.0984,352.5262 568.7184,368.6262 " fill="none" id="UniquePersonList-to-Match" style="stroke:#9D0012;stroke-width:1.1;stroke-dasharray:7.0,7.0;"/><polygon fill="#9D0012" points="573.74,371.91,568.3968,363.6365,569.5553,369.1735,564.0184,370.332,573.74,371.91" style="stroke:#9D0012;stroke-width:1.1;"/></g><!--link Person to Name--><g id="link_Person_Name"><path codeLine="59" d="M303.9837,488.9597 C263.3037,505.4997 203.3478,529.8893 163.7178,546.0093 " fill="none" id="Person-Name" style="stroke:#9D0012;stroke-width:1.1;"/><polygon fill="#9D0012" points="315.1,484.44,308.0353,482.9944,303.9837,488.9597,311.0484,490.4053,315.1,484.44" style="stroke:#9D0012;stroke-width:1.1;"/><polygon fill="#9D0012" points="158.16,548.27,168.0038,548.5841,162.7915,546.3861,164.9896,541.1737,158.16,548.27" style="stroke:#9D0012;stroke-width:1.1;"/></g><!--link Person to Phone--><g id="link_Person_Phone"><path codeLine="60" d="M313.8026,492.8254 C290.3626,508.8954 264.7984,526.4169 241.3184,542.5169 " fill="none" id="Person-Phone" style="stroke:#9D0012;stroke-width:1.1;"/><polygon fill="#9D0012" points="323.7,486.04,316.4895,486.1336,313.8026,492.8254,321.0131,492.7318,323.7,486.04" style="stroke:#9D0012;stroke-width:1.1;"/><polygon fill="#9D0012" points="236.37,545.91,246.0547,544.1193,240.4937,543.0824,241.5306,537.5214,236.37,545.91" style="stroke:#9D0012;stroke-width:1.1;"/></g><!--link Person to Email--><g id="link_Person_Email"><path codeLine="61" d="M369.147,493.0536 C391.457,509.1236 415.3016,526.303 437.6516,542.403 " fill="none" id="Person-Email" style="stroke:#9D0012;stroke-width:1.1;"/><polygon fill="#9D0012" points="359.41,486.04,361.9406,492.7925,369.147,493.0536,366.6164,486.3011,359.41,486.04" style="stroke:#9D0012;stroke-width:1.1;"/><polygon fill="#9D0012" points="442.52,545.91,437.5554,537.4039,438.463,542.9875,432.8794,543.8951,442.52,545.91" style="stroke:#9D0012;stroke-width:1.1;"/></g><!--link Person to Tag--><g id="link_Person_Tag"><path codeLine="62" d="M379.6087,489.2452 C418.9387,505.7152 475.6057,529.4424 514.1957,545.6024 " fill="none" id="Person-Tag" style="stroke:#9D0012;stroke-width:1.1;"/><polygon fill="#9D0012" points="368.54,484.61,372.5293,490.6171,379.6087,489.2452,375.6194,483.238,368.54,484.61" style="stroke:#9D0012;stroke-width:1.1;"/><polygon fill="#9D0012" points="519.73,547.92,512.9735,540.7541,515.1181,545.9887,509.8835,548.1332,519.73,547.92" style="stroke:#9D0012;stroke-width:1.1;"/><text fill="#000000" font-family="sans-serif" font-size="13" font-weight="bold" lengthAdjust="spacing" textLength="5" x="506.9197" y="539.9227">*</text></g><!--link Person to Role--><g id="link_Person_Role"><path codeLine="63" d="M380.0931,484.6935 C425.2131,497.9535 508.17,522.36 588,546 C593.4,547.6 593.4273,547.6151 598.9273,549.2451 " fill="none" id="Person-Role" style="stroke:#9D0012;stroke-width:1.1;"/><polygon fill="#9D0012" points="368.58,481.31,373.2087,486.8395,380.0931,484.6935,375.4644,479.164,368.58,481.31" style="stroke:#9D0012;stroke-width:1.1;"/><polygon fill="#9D0012" points="604.68,550.95,597.1876,544.5575,599.8861,549.5293,594.9144,552.2278,604.68,550.95" style="stroke:#9D0012;stroke-width:1.1;"/><text fill="#000000" font-family="sans-serif" font-size="13" font-weight="bold" lengthAdjust="spacing" textLength="7" x="589.9346" y="544.0111">1</text></g><!--link Person to IGN--><g id="link_Person_IGN"><path codeLine="64" d="M380.5322,478.149 C476.8822,489.869 790.59,529.15 805,546 C827.09,571.82 802.3613,607.7401 784.7813,628.1901 " fill="none" id="Person-IGN" style="stroke:#9D0012;stroke-width:1.1;"/><polygon fill="#9D0012" points="368.62,476.7,374.0931,481.3952,380.5322,478.149,375.0591,473.4538,368.62,476.7" style="stroke:#9D0012;stroke-width:1.1;"/><polygon fill="#9D0012" points="780.87,632.74,789.7703,628.5227,784.1295,628.9484,783.7038,623.3076,780.87,632.74" style="stroke:#9D0012;stroke-width:1.1;"/><text fill="#000000" font-family="sans-serif" font-size="13" font-weight="bold" lengthAdjust="spacing" textLength="7" x="776.9564" y="622.2301">1</text></g><!--link Person to Rank--><g id="link_Person_Rank"><path codeLine="65" d="M303.7196,484.5342 C257.8296,497.7642 172.69,522.33 91,546 C85.18,547.69 84.6728,547.8398 78.7728,549.5498 " fill="none" id="Person-Rank" style="stroke:#9D0012;stroke-width:1.1;"/><polygon fill="#9D0012" points="315.25,481.21,308.3767,479.0286,303.7196,484.5342,310.5929,486.7156,315.25,481.21" style="stroke:#9D0012;stroke-width:1.1;"/><polygon fill="#9D0012" points="73.01,551.22,82.7678,552.5565,77.8124,549.8281,80.5408,544.8727,73.01,551.22" style="stroke:#9D0012;stroke-width:1.1;"/><text fill="#000000" font-family="sans-serif" font-size="13" font-weight="bold" lengthAdjust="spacing" textLength="7" x="81.0284" y="544.1509">1</text></g><!--link Person to EntityStatisticMap--><g id="link_Person_EntityStatisticMap"><path codeLine="66" d="M341.1346,498.0325 C340.5646,514.1025 340.2223,523.8138 339.6523,539.9138 " fill="none" id="Person-EntityStatisticMap" style="stroke:#9D0012;stroke-width:1.1;"/><polygon fill="#9D0012" points="341.56,486.04,337.3498,491.8944,341.1346,498.0325,345.3448,492.178,341.56,486.04" style="stroke:#9D0012;stroke-width:1.1;"/><polygon fill="#9D0012" points="339.44,545.91,343.7559,537.0572,339.6169,540.9131,335.7609,536.7741,339.44,545.91" style="stroke:#9D0012;stroke-width:1.1;"/><text fill="#000000" font-family="sans-serif" font-size="13" font-weight="bold" lengthAdjust="spacing" textLength="7" x="331.2734" y="535.1936">1</text></g><!--link Statistics to Kills--><g id="link_Statistics_Kills"><path codeLine="68" d="M387.5762,668.4256 C371.1262,684.4956 355.6506,699.6158 339.1806,715.7158 " fill="none" id="Statistics-Kills" style="stroke:#9D0012;stroke-width:1.1;"/><polygon fill="#9D0012" points="396.16,660.04,389.0729,661.3715,387.5762,668.4256,394.6633,667.0941,396.16,660.04" style="stroke:#9D0012;stroke-width:1.1;"/><polygon fill="#9D0012" points="334.89,719.91,344.122,716.4791,338.4655,716.4149,338.5297,710.7584,334.89,719.91" style="stroke:#9D0012;stroke-width:1.1;"/><text fill="#000000" font-family="sans-serif" font-size="13" font-weight="bold" lengthAdjust="spacing" textLength="7" x="331.4699" y="709.1936">1</text></g><!--link Statistics to Deaths--><g id="link_Statistics_Deaths"><path codeLine="69" d="M409,672.04 C409,688.11 409,697.81 409,713.91 " fill="none" id="Statistics-Deaths" style="stroke:#9D0012;stroke-width:1.1;"/><polygon fill="#9D0012" points="409,660.04,405,666.04,409,672.04,413,666.04,409,660.04" style="stroke:#9D0012;stroke-width:1.1;"/><polygon fill="#9D0012" points="409,719.91,413,710.91,409,714.91,405,710.91,409,719.91" style="stroke:#9D0012;stroke-width:1.1;"/><text fill="#000000" font-family="sans-serif" font-size="13" font-weight="bold" lengthAdjust="spacing" textLength="7" x="400.6656" y="709.1936">1</text></g><!--link Statistics to Assists--><g id="link_Statistics_Assists"><path codeLine="70" d="M430.809,668.3271 C447.639,684.3971 463.6219,699.665 480.4719,715.765 " fill="none" id="Statistics-Assists" style="stroke:#9D0012;stroke-width:1.1;"/><polygon fill="#9D0012" points="422.13,660.04,423.7071,667.0765,430.809,668.3271,429.2318,661.2905,422.13,660.04" style="stroke:#9D0012;stroke-width:1.1;"/><polygon fill="#9D0012" points="484.81,719.91,481.0662,710.8004,481.1949,716.4558,475.5395,716.5846,484.81,719.91" style="stroke:#9D0012;stroke-width:1.1;"/><text fill="#000000" font-family="sans-serif" font-size="13" font-weight="bold" lengthAdjust="spacing" textLength="7" x="471.4469" y="709.1936">1</text></g><!--link MatchRecord to MatchList--><g id="link_MatchRecord_MatchList"><path codeLine="72" d="M578.6977,236.7212 C582.4777,252.7912 584.8752,262.9696 588.6652,279.0696 " fill="none" id="MatchRecord-MatchList" style="stroke:#9D0012;stroke-width:1.1;"/><polygon fill="#9D0012" points="575.95,225.04,573.4301,231.7965,578.6977,236.7212,581.2176,229.9647,575.95,225.04" style="stroke:#9D0012;stroke-width:1.1;"/><polygon fill="#9D0012" points="590.04,284.91,591.8713,275.2329,588.8943,280.043,584.0842,277.066,590.04,284.91" style="stroke:#9D0012;stroke-width:1.1;"/><text fill="#000000" font-family="sans-serif" font-size="13" font-weight="bold" lengthAdjust="spacing" textLength="7" x="580.5771" y="274.1936">1</text></g><!--link MatchList to Match--><g id="link_MatchList_Match"><path codeLine="73" d="M593,312.04 C593,328.11 593,349.81 593,365.91 " fill="none" id="MatchList-to-Match" style="stroke:#9D0012;stroke-width:1.1;"/><polygon fill="#9D0012" points="593,371.91,597,362.91,593,366.91,589,362.91,593,371.91" style="stroke:#9D0012;stroke-width:1.1;"/><text fill="#000000" font-family="sans-serif" font-size="13" font-weight="bold" lengthAdjust="spacing" textLength="5" x="587.0469" y="361.1936">*</text></g><!--link Match to LocalDate--><g id="link_Match_LocalDate"><path codeLine="74" d="M596.4484,410.922 C598.7184,426.992 600.1123,436.8688 602.3823,452.9688 " fill="none" id="Match-LocalDate" style="stroke:#9D0012;stroke-width:1.1;"/><polygon fill="#9D0012" points="594.77,399.04,591.6485,405.5405,596.4484,410.922,599.5699,404.4215,594.77,399.04" style="stroke:#9D0012;stroke-width:1.1;"/><polygon fill="#9D0012" points="603.22,458.91,605.9243,449.4397,602.5219,453.959,598.0027,450.5566,603.22,458.91" style="stroke:#9D0012;stroke-width:1.1;"/><text fill="#000000" font-family="sans-serif" font-size="13" font-weight="bold" lengthAdjust="spacing" textLength="7" x="594.207" y="448.1936">1</text></g><!--link Match to Result--><g id="link_Match_Result"><path codeLine="75" d="M572.1726,407.5729 C556.2826,423.6429 541.566,438.5409 525.666,454.6409 " fill="none" id="Match-Result" style="stroke:#9D0012;stroke-width:1.1;"/><polygon fill="#9D0012" points="580.61,399.04,573.547,400.494,572.1726,407.5729,579.2356,406.1189,580.61,399.04" style="stroke:#9D0012;stroke-width:1.1;"/><polygon fill="#9D0012" points="521.45,458.91,530.6201,455.3171,524.9634,455.3524,524.928,449.6957,521.45,458.91" style="stroke:#9D0012;stroke-width:1.1;"/><text fill="#000000" font-family="sans-serif" font-size="13" font-weight="bold" lengthAdjust="spacing" textLength="7" x="517.8622" y="448.1936">1</text></g><!--link Match to PlayersInMatch--><g id="link_Match_PlayersInMatch"><path codeLine="76" d="M613.95,399.04 C640.8,415.11 681.9222,439.7278 708.8122,455.8278 " fill="none" id="Match-to-PlayersInMatch" style="stroke:#9D0012;stroke-width:1.1;"/><polygon fill="#9D0012" points="713.96,458.91,708.2931,450.8548,709.6701,456.3415,704.1835,457.7186,713.96,458.91" style="stroke:#9D0012;stroke-width:1.1;"/><text fill="#000000" font-family="sans-serif" font-size="13" font-weight="bold" lengthAdjust="spacing" textLength="7" x="697.6041" y="448.1936">1</text></g><!--link EntityStatisticMap to Entity--><g id="link_EntityStatisticMap_Entity"><path codeLine="78" d="M373.53,573.04 C421.07,590.31 499.9507,618.961 542.0607,634.261 " fill="none" id="EntityStatisticMap-to-Entity" style="stroke:#9D0012;stroke-width:1.1;"/><polygon fill="#9D0012" points="547.7,636.31,540.607,629.477,543.0006,634.6025,537.8751,636.9961,547.7,636.31" style="stroke:#9D0012;stroke-width:1.1;"/><text fill="#000000" font-family="sans-serif" font-size="13" font-weight="bold" lengthAdjust="spacing" textLength="5" x="534.8813" y="628.7037">*</text></g><!--link EntityStatisticMap to Statistics--><g id="link_EntityStatisticMap_Statistics"><path codeLine="79" d="M349.33,573.04 C362.56,589.11 381.5556,612.1786 394.8156,628.2786 " fill="none" id="EntityStatisticMap-to-Statistics" style="stroke:#9D0012;stroke-width:1.1;"/><polygon fill="#9D0012" points="398.63,632.91,395.9959,623.4199,395.4513,629.0505,389.8207,628.5058,398.63,632.91" style="stroke:#9D0012;stroke-width:1.1;"/><text fill="#000000" font-family="sans-serif" font-size="13" font-weight="bold" lengthAdjust="spacing" textLength="5" x="388.7233" y="622.1936">*</text></g><!--link PlayersInMatch to PlayerInMatch--><g id="link_PlayersInMatch_PlayerInMatch"><path codeLine="81" d="M735.59,486.04 C736.35,502.11 737.3671,523.8167 738.1271,539.9167 " fill="none" id="PlayersInMatch-to-PlayerInMatch" style="stroke:#9D0012;stroke-width:1.1;"/><polygon fill="#9D0012" points="738.41,545.91,741.9812,536.7314,738.1742,540.9156,733.9901,537.1086,738.41,545.91" style="stroke:#9D0012;stroke-width:1.1;"/><text fill="#000000" font-family="sans-serif" font-size="13" font-weight="bold" lengthAdjust="spacing" textLength="7" x="729.8507" y="535.1936">5</text></g><!--link PlayerInMatch to Statistics--><g id="link_PlayerInMatch_Statistics"><path codeLine="82" d="M678.6892,576.0328 C610.7392,593.5328 506.6703,620.343 448.1403,635.423 " fill="none" id="PlayerInMatch-Statistics" style="stroke:#9D0012;stroke-width:1.1;"/><polygon fill="#9D0012" points="690.31,573.04,683.502,570.6628,678.6892,576.0328,685.4972,578.41,690.31,573.04" style="stroke:#9D0012;stroke-width:1.1;"/><polygon fill="#9D0012" points="442.33,636.92,452.0434,638.548,447.1719,635.6725,450.0474,630.801,442.33,636.92" style="stroke:#9D0012;stroke-width:1.1;"/><text fill="#000000" font-family="sans-serif" font-size="13" font-weight="bold" lengthAdjust="spacing" textLength="7" x="449.9262" y="630.7999">1</text></g><!--link PlayerInMatch to IGN--><g id="link_PlayerInMatch_IGN"><path codeLine="83" d="M747.4227,584.3563 C753.0927,600.4263 756.8707,611.1529 762.5607,627.2529 " fill="none" id="PlayerInMatch-IGN" style="stroke:#9D0012;stroke-width:1.1;"/><polygon fill="#9D0012" points="743.43,573.04,741.6543,580.029,747.4227,584.3563,749.1985,577.3672,743.43,573.04" style="stroke:#9D0012;stroke-width:1.1;"/><polygon fill="#9D0012" points="764.56,632.91,765.3324,623.0915,762.8939,628.1958,757.7896,625.7572,764.56,632.91" style="stroke:#9D0012;stroke-width:1.1;"/><text fill="#000000" font-family="sans-serif" font-size="13" font-weight="bold" lengthAdjust="spacing" textLength="7" x="754.5329" y="622.1936">1</text></g><!--link PlayerInMatch to Entity--><g id="link_PlayerInMatch_Entity"><path codeLine="84" d="M703.8284,578.5084 C672.4384,594.5784 634.3705,614.0752 602.9305,630.1752 " fill="none" id="PlayerInMatch-Entity" style="stroke:#9D0012;stroke-width:1.1;"/><polygon fill="#9D0012" points="714.51,573.04,707.3464,572.2137,703.8284,578.5084,710.992,579.3347,714.51,573.04" style="stroke:#9D0012;stroke-width:1.1;"/><polygon fill="#9D0012" points="597.59,632.91,607.4239,632.3681,602.0404,630.631,603.7775,625.2475,597.59,632.91" style="stroke:#9D0012;stroke-width:1.1;"/><text fill="#000000" font-family="sans-serif" font-size="13" font-weight="bold" lengthAdjust="spacing" textLength="7" x="598.6306" y="622.1936">1</text></g><!--reverse link I to Person--><!--link UniquePersonList to I--><!--link Name to Phone--><!--link ModelManager to Person--><g id="link_ModelManager_Person"><path codeLine="93" d="M297.3,225.14 C296.47,244.11 295.67,281.03 300,312 C307.8,367.87 326.5318,426.5217 335.6418,453.2117 " fill="none" id="ModelManager-to-Person" style="stroke:#9D0012;stroke-width:1.1;"/><polygon fill="#9D0012" points="337.58,458.89,338.4583,449.0804,335.9649,454.1581,330.8872,451.6646,337.58,458.89" style="stroke:#9D0012;stroke-width:1.1;"/><text fill="#000000" font-family="sans-serif" font-size="13" font-weight="bold" lengthAdjust="spacing" textLength="54" x="271.6011" y="448.1659">* filtered</text></g><!--SRC=[XLLDZziW4BtpAwXxYnHBEVGMMTfDqZPgiedIxMbRLSWcCGg15B2gg1-_lHWO6t-awnEyznY6OHv-mqJEgu9YRMwSfjVgmf4-Ct4bYbmmKKh-V2vPVXPKQpnBPtro8RbKUBjRhZRV5xlDxX09SawqVYJv-QHa9OgX5EqjIKuKRsL1EIRQ3m2TpmyqDqISECsoNsXHXyF9VCw4eUf8Sej-5GTAYftWjuUYK3R7HodFIHrf17ybmXTDrLxHe-wiRz1NLc-9oKkRhrH5Pts4tudWpfmqfm-gOTwEtH9XIwC2r2O7W60_AhgdIaknOTe4s0F8NGXU2SFCxRCXnWfOlYNNe5fT28FjdyY5mk9I2XW_arCO7IG7SFtX2K0Y8DicFXJk4-CSnajAJ0cJ1wsj46R3UZaaEeoRmuPKLno8ZSm9NnBJ9Cx9pHvyBU8L7knYlY9GmpL- -zvzw0z07rbHKB6hZ6RMAa1tqJJDmWMYwEvmMbtJtzbeEqP7xSlYAg3uua7eT_A-IHKxbIRDHdes23WzndmdYV4GSGAT_QTrh6c6arc21t4QaGiNLFT3nQesvsRKBqhKxN659rC8qM_-Fe2Tyky44suD5qmn43Mry2tY6R-BSqKCU6_4Y3THZ2IJnFccWzbqdOFwOEsbWR1sLHySSJ5gFTVglEt6c632CGeisMdHXcqDsOoWie7qHBkYTMQF2FxrA80ztwBXKJ7KDJZtFuhe7KBTm5xoBkaz2PrPcsaKvux2NTqu1GyCWckSlfJkyVXMNMlDUgHLGG4cMIDKjz-Gy3tOirPez2FZzaz32-ZsVm00]--></g></svg>