<?xml version="1.0" encoding="us-ascii" standalone="no"?><svg xmlns="http://www.w3.org/2000/svg" xmlns:xlink="http://www.w3.org/1999/xlink" contentStyleType="text/css" height="501px" preserveAspectRatio="none" style="width:669px;height:501px;background:#FFFFFF;" version="1.1" viewBox="0 0 669 501" width="669px" zoomAndPan="magnify"><defs/><g><!--cluster Parser classes--><g id="cluster_Parser classes"><rect fill="#FFFFFF" height="414" rx="2.5" ry="2.5" style="stroke:#000000;stroke-width:1.0;" width="535" x="7" y="81"/><text fill="#000000" font-family="sans-serif" font-size="16" font-weight="bold" lengthAdjust="spacing" textLength="112" x="218.5" y="99.6094">Parser classes</text></g><!--class Parser--><g id="elem_Parser"><rect codeLine="10" fill="#3333C4" height="44.4971" id="Parser" rx="2.5" ry="2.5" style="stroke:#FFFFFF;stroke-width:1.0;" width="78" x="275" y="120"/><text fill="#FFFFFF" font-family="Arial" font-size="15" lengthAdjust="spacing" textLength="72" x="278" y="139.0698">&#171;interface&#187;</text><text fill="#FFFFFF" font-family="Arial" font-size="15" lengthAdjust="spacing" textLength="44" x="292" y="156.3184">Parser</text></g><!--class AddressBookParser--><g id="elem_AddressBookParser"><rect codeLine="11" fill="#3333C4" height="27.2485" id="AddressBookParser" rx="2.5" ry="2.5" style="stroke:#FFFFFF;stroke-width:1.0;" width="137" x="388.5" y="128.5"/><text fill="#FFFFFF" font-family="Arial" font-size="15" lengthAdjust="spacing" textLength="131" x="391.5" y="147.5698">AddressBookParser</text></g><!--class XYZCommandParser--><g id="elem_XYZCommandParser"><rect codeLine="12" fill="#3333C4" height="27.2485" id="XYZCommandParser" rx="2.5" ry="2.5" style="stroke:#FFFFFF;stroke-width:1.0;" width="145" x="314.5" y="250.5"/><text fill="#FFFFFF" font-family="Arial" font-size="15" lengthAdjust="spacing" textLength="139" x="317.5" y="269.5698">XYZCommandParser</text></g><!--class CliSyntax--><g id="elem_CliSyntax"><rect codeLine="13" fill="#3333C4" height="27.2485" id="CliSyntax" rx="2.5" ry="2.5" style="stroke:#FFFFFF;stroke-width:1.0;" width="67" x="353.5" y="364"/><text fill="#FFFFFF" font-family="Arial" font-size="15" lengthAdjust="spacing" textLength="61" x="356.5" y="383.0698">CliSyntax</text></g><!--class ParserUtil--><g id="elem_ParserUtil"><rect codeLine="14" fill="#3333C4" height="27.2485" id="ParserUtil" rx="2.5" ry="2.5" style="stroke:#FFFFFF;stroke-width:1.0;" width="70" x="456" y="364"/><text fill="#FFFFFF" font-family="Arial" font-size="15" lengthAdjust="spacing" textLength="64" x="459" y="383.0698">ParserUtil</text></g><!--class ArgumentMultimap--><g id="elem_ArgumentMultimap"><rect codeLine="15" fill="#3333C4" height="27.2485" id="ArgumentMultimap" rx="2.5" ry="2.5" style="stroke:#FFFFFF;stroke-width:1.0;" width="127" x="23.5" y="364"/><text fill="#FFFFFF" font-family="Arial" font-size="15" lengthAdjust="spacing" textLength="121" x="26.5" y="383.0698">ArgumentMultimap</text></g><!--class ArgumentTokenizer--><g id="elem_ArgumentTokenizer"><rect codeLine="16" fill="#3333C4" height="27.2485" id="ArgumentTokenizer" rx="2.5" ry="2.5" style="stroke:#FFFFFF;stroke-width:1.0;" width="133" x="185.5" y="364"/><text fill="#FFFFFF" font-family="Arial" font-size="15" lengthAdjust="spacing" textLength="127" x="188.5" y="383.0698">ArgumentTokenizer</text></g><!--class Prefix--><g id="elem_Prefix"><rect codeLine="17" fill="#3333C4" height="27.2485" id="Prefix" rx="2.5" ry="2.5" style="stroke:#FFFFFF;stroke-width:1.0;" width="50" x="362" y="452"/><text fill="#FFFFFF" font-family="Arial" font-size="15" lengthAdjust="spacing" textLength="37" x="368.5" y="471.0698">Prefix</text></g><!--class Command--><g id="elem_Command"><rect codeLine="6" fill="#3333C4" height="44.4971" id="Command" rx="2.5" ry="2.5" style="stroke:#FFFFFF;stroke-width:1.0;" width="75" x="566.5" y="242"/><text fill="#FFFFFF" font-family="Arial" font-size="15" lengthAdjust="spacing" textLength="63" x="572.5" y="261.0698">{abstract}</text><text fill="#FFFFFF" font-family="Arial" font-size="15" lengthAdjust="spacing" textLength="69" x="569.5" y="278.3184">Command</text></g><!--class XYZCommand--><g id="elem_XYZCommand"><rect codeLine="7" fill="#3333C4" height="27.2485" id="XYZCommand" rx="2.5" ry="2.5" style="stroke:#FFFFFF;stroke-width:1.0;" width="101" x="561.5" y="364"/><text fill="#FFFFFF" font-family="Arial" font-size="15" lengthAdjust="spacing" textLength="95" x="564.5" y="383.0698">XYZCommand</text></g><!--class HiddenOutside--><g id="elem_HiddenOutside"><rect codeLine="20" fill="#FFFFFF" height="27.2485" id="HiddenOutside" rx="2.5" ry="2.5" style="stroke:#FFFFFF;stroke-width:1.0;" width="102" x="406" y="7"/><text fill="#FFFFFF" font-family="Arial" font-size="15" lengthAdjust="spacing" textLength="96" x="409" y="26.0698">HiddenOutside</text></g><!--link HiddenOutside to AddressBookParser--><g id="link_HiddenOutside_AddressBookParser"><path codeLine="21" d="M457,34.29 C457,57.29 457,99.37 457,122.3 " fill="none" id="HiddenOutside-to-AddressBookParser" style="stroke:#101086;stroke-width:1.1;stroke-dasharray:7.0,7.0;"/><polygon fill="#101086" points="457,128.3,461,119.3,457,123.3,453,119.3,457,128.3" style="stroke:#101086;stroke-width:1.1;"/></g><!--link AddressBookParser to XYZCommandParser--><g id="link_AddressBookParser_XYZCommandParser"><path codeLine="23" d="M449.51,155.84 C436.04,178.94 410.8925,222.0369 397.4625,245.0669 " fill="none" id="AddressBookParser-to-XYZCommandParser" style="stroke:#101086;stroke-width:1.1;stroke-dasharray:7.0,7.0;"/><polygon fill="#101086" points="394.44,250.25,402.4292,244.4904,396.9588,245.9308,395.5184,240.4604,394.44,250.25" style="stroke:#101086;stroke-width:1.1;"/><text fill="#000000" font-family="sans-serif" font-size="13" font-weight="bold" lengthAdjust="spacing" textLength="54" x="427" y="208.4951">&#171;create&#187;</text></g><!--link XYZCommandParser to XYZCommand--><g id="link_XYZCommandParser_XYZCommand"><path codeLine="25" d="M412.37,277.57 C455.7,299.05 538.084,339.8656 581.344,361.3056 " fill="none" id="XYZCommandParser-to-XYZCommand" style="stroke:#101086;stroke-width:1.1;stroke-dasharray:7.0,7.0;"/><polygon fill="#101086" points="586.72,363.97,580.4323,356.3895,582.24,361.7497,576.8798,363.5574,586.72,363.97" style="stroke:#101086;stroke-width:1.1;"/><text fill="#000000" font-family="sans-serif" font-size="13" font-weight="bold" lengthAdjust="spacing" textLength="54" x="520" y="330.4951">&#171;create&#187;</text></g><!--link AddressBookParser to Command--><g id="link_AddressBookParser_Command"><path codeLine="26" d="M472.45,155.62 C497.59,176.13 542.9519,213.1659 573.5419,238.1359 " fill="none" id="AddressBookParser-to-Command" style="stroke:#101086;stroke-width:1.1;stroke-dasharray:7.0,7.0;"/><polygon fill="#101086" points="578.19,241.93,573.7473,233.1401,574.3166,238.7682,568.6885,239.3375,578.19,241.93" style="stroke:#101086;stroke-width:1.1;"/><text fill="#000000" font-family="sans-serif" font-size="13" font-weight="bold" lengthAdjust="spacing" textLength="36" x="540" y="208.4951">&#171;use&#187;</text></g><!--reverse link Parser to XYZCommandParser--><g id="link_Parser_XYZCommandParser"><path codeLine="27" d="M336.2365,179.5571 C351.4665,204.5871 366.95,230.03 379.39,250.49 " fill="none" id="Parser-backto-XYZCommandParser" style="stroke:#101086;stroke-width:1.1;stroke-dasharray:7.0,7.0;"/><polygon fill="none" points="326.88,164.18,331.1108,182.676,341.3622,176.4383,326.88,164.18" style="stroke:#101086;stroke-width:1.1;"/></g><!--link XYZCommandParser to ArgumentMultimap--><g id="link_XYZCommandParser_ArgumentMultimap"><path codeLine="28" d="M353.17,277.57 C295.4,299.05 184.014,340.4395 126.334,361.8795 " fill="none" id="XYZCommandParser-to-ArgumentMultimap" style="stroke:#101086;stroke-width:1.1;stroke-dasharray:7.0,7.0;"/><polygon fill="#101086" points="120.71,363.97,130.5397,364.5836,125.3967,362.2279,127.7524,357.0849,120.71,363.97" style="stroke:#101086;stroke-width:1.1;"/></g><!--link XYZCommandParser to ArgumentTokenizer--><g id="link_XYZCommandParser_ArgumentTokenizer"><path codeLine="29" d="M371.78,277.57 C345.85,298.99 298.036,338.479 272.006,359.979 " fill="none" id="XYZCommandParser-to-ArgumentTokenizer" style="stroke:#101086;stroke-width:1.1;stroke-dasharray:7.0,7.0;"/><polygon fill="#101086" points="267.38,363.8,276.8664,361.1526,271.235,360.6159,271.7717,354.9845,267.38,363.8" style="stroke:#101086;stroke-width:1.1;"/></g><!--reverse link ArgumentMultimap to ArgumentTokenizer--><g id="link_ArgumentMultimap_ArgumentTokenizer"><path codeLine="30" d="M156.81,377.5 C168.27,377.5 173.73,377.5 185.2,377.5 " fill="none" id="ArgumentMultimap-backto-ArgumentTokenizer" style="stroke:#101086;stroke-width:1.1;stroke-dasharray:7.0,7.0;"/><polygon fill="#101086" points="150.81,377.5,159.81,381.5,155.81,377.5,159.81,373.5,150.81,377.5" style="stroke:#101086;stroke-width:1.1;"/></g><!--link XYZCommandParser to CliSyntax--><g id="link_XYZCommandParser_CliSyntax"><path codeLine="31" d="M387,277.79 C387,299.3 387,336.45 387,357.86 " fill="none" id="XYZCommandParser-to-CliSyntax" style="stroke:#101086;stroke-width:1.1;stroke-dasharray:7.0,7.0;"/><polygon fill="#101086" points="387,363.86,391,354.86,387,358.86,383,354.86,387,363.86" style="stroke:#101086;stroke-width:1.1;"/></g><!--link CliSyntax to Prefix--><g id="link_CliSyntax_Prefix"><path codeLine="32" d="M387,391.19 C387,407.45 387,429.47 387,445.76 " fill="none" id="CliSyntax-to-Prefix" style="stroke:#101086;stroke-width:1.1;stroke-dasharray:7.0,7.0;"/><polygon fill="#101086" points="387,451.76,391,442.76,387,446.76,383,442.76,387,451.76" style="stroke:#101086;stroke-width:1.1;"/></g><!--link XYZCommandParser to ParserUtil--><g id="link_XYZCommandParser_ParserUtil"><path codeLine="33" d="M398.93,277.79 C418.99,299.3 455.1475,338.0624 475.1175,359.4724 " fill="none" id="XYZCommandParser-to-ParserUtil" style="stroke:#101086;stroke-width:1.1;stroke-dasharray:7.0,7.0;"/><polygon fill="#101086" points="479.21,363.86,475.9963,354.5502,475.7996,360.2036,470.1461,360.0069,479.21,363.86" style="stroke:#101086;stroke-width:1.1;"/></g><!--link ParserUtil to Prefix--><g id="link_ParserUtil_Prefix"><path codeLine="34" d="M475.65,391.19 C455.99,407.45 426.723,431.6453 407.033,447.9353 " fill="none" id="ParserUtil-to-Prefix" style="stroke:#101086;stroke-width:1.1;stroke-dasharray:7.0,7.0;"/><polygon fill="#101086" points="402.41,451.76,411.8942,449.1049,406.2625,448.5728,406.7947,442.941,402.41,451.76" style="stroke:#101086;stroke-width:1.1;"/></g><!--link ArgumentTokenizer to Prefix--><g id="link_ArgumentTokenizer_Prefix"><path codeLine="35" d="M271.63,391.01 C297.23,407.31 336.6792,432.447 362.2892,448.757 " fill="none" id="ArgumentTokenizer-to-Prefix" style="stroke:#101086;stroke-width:1.1;stroke-dasharray:7.0,7.0;"/><polygon fill="#101086" points="367.35,451.98,361.9075,443.7715,363.1326,449.2941,357.6101,450.5193,367.35,451.98" style="stroke:#101086;stroke-width:1.1;"/></g><!--reverse link Command to XYZCommand--><g id="link_Command_XYZCommand"><path codeLine="36" d="M606.808,304.1839 C608.458,327.1839 609.75,345.15 611.1,364 " fill="none" id="Command-backto-XYZCommand" style="stroke:#101086;stroke-width:1.1;"/><polygon fill="none" points="605.52,286.23,600.8234,304.6132,612.7926,303.7545,605.52,286.23" style="stroke:#101086;stroke-width:1.1;"/></g><!--SRC=[ZP59QyCm48Nl-XMgUuuXq5CnXiRG1L8SsXJQ4WXJIqc5PSbe8KcJ_FSwtZTAVHg_-VH6UdF5HCGjeLYR0wTkQXEETCn42WeI34h9tVARHR6WMkEfE-qt0ycbmlFmuIbO1-4yV5alRrfCn47h6KJnLaaho816ABWGs3d2bpOA8dDUYK0c2GZYOD2uh4li_UEp4b2QkSAMOcS1IbDLZABQELQMdiU4eMe34VNzbIYmtBGeI-wE49KzRYPbtD6RMHqvuEpr80pio_-Y-MOOh_pKrYPKc6VB3KiWxSbB6LF1Vcg_XQ8RjaVdAeb7HWWLeJMQPLkvliy_r5LTrn-vDXf8s2Lo9pAu_vPRx7cHec2oP13gTtF_HiGTUcH8HhTHgo_SqDIcxicliX-TEOZkJwf9Sg1WbzED-RTZUwTbbUlbRaRFjFRUb7NWvScHYtM1LieJcqvETPA_]--></g></svg>