<?xml version="1.0" encoding="us-ascii" standalone="no"?><svg xmlns="http://www.w3.org/2000/svg" xmlns:xlink="http://www.w3.org/1999/xlink" contentStyleType="text/css" height="574px" preserveAspectRatio="none" style="width:1275px;height:574px;background:#FFFFFF;" version="1.1" viewBox="0 0 1275 574" width="1275px" zoomAndPan="magnify"><defs/><g><!--cluster StoragePackage--><g id="cluster_StoragePackage"><rect fill="#FFFFFF" height="518" rx="2.5" ry="2.5" style="stroke:#000000;stroke-width:1.0;" width="1262" x="7" y="50"/><text fill="#000000" font-family="sans-serif" font-size="16" font-weight="bold" lengthAdjust="spacing" textLength="60" x="608" y="68.6094">Storage</text></g><!--cluster UserPrefs Storage--><g id="cluster_UserPrefs Storage"><rect fill="#F4F6F6" height="186" rx="2.5" ry="2.5" style="stroke:#000000;stroke-width:1.0;" width="186" x="1059" y="97"/><text fill="#000000" font-family="sans-serif" font-size="16" font-weight="bold" lengthAdjust="spacing" textLength="140" x="1082" y="115.6094">UserPrefs Storage</text></g><!--cluster AddressBook Storage--><g id="cluster_AddressBook Storage"><rect fill="#F4F6F6" height="447" rx="2.5" ry="2.5" style="stroke:#000000;stroke-width:1.0;" width="388" x="647" y="97"/><text fill="#000000" font-family="sans-serif" font-size="16" font-weight="bold" lengthAdjust="spacing" textLength="169" x="756.5" y="115.6094">AddressBook Storage</text></g><!--cluster MatchRecord Storage--><g id="cluster_MatchRecord Storage"><rect fill="#F4F6F6" height="360" rx="2.5" ry="2.5" style="stroke:#000000;stroke-width:1.0;" width="232" x="269" y="97"/><text fill="#000000" font-family="sans-serif" font-size="16" font-weight="bold" lengthAdjust="spacing" textLength="166" x="302" y="115.6094">MatchRecord Storage</text></g><!--cluster Entity Storage--><g id="cluster_Entity Storage"><rect fill="#F4F6F6" height="273" rx="2.5" ry="2.5" style="stroke:#000000;stroke-width:1.0;" width="214" x="31" y="97"/><text fill="#000000" font-family="sans-serif" font-size="16" font-weight="bold" lengthAdjust="spacing" textLength="108" x="84" y="115.6094">Entity Storage</text></g><!--class Storage--><g id="elem_Storage"><rect codeLine="13" fill="#A38300" height="44.4971" id="Storage" rx="2.5" ry="2.5" style="stroke:#FFFFFF;stroke-width:1.0;" width="78" x="535" y="136"/><text fill="#FFFFFF" font-family="Arial" font-size="15" lengthAdjust="spacing" textLength="72" x="538" y="155.0698">&#171;interface&#187;</text><text fill="#FFFFFF" font-family="Arial" font-size="15" lengthAdjust="spacing" textLength="51" x="548.5" y="172.3184">Storage</text></g><!--class StorageManager--><g id="elem_StorageManager"><rect codeLine="14" fill="#A38300" height="27.2485" id="StorageManager" rx="2.5" ry="2.5" style="stroke:#FFFFFF;stroke-width:1.0;" width="113" x="517.5" y="240"/><text fill="#FFFFFF" font-family="Arial" font-size="15" lengthAdjust="spacing" textLength="107" x="520.5" y="259.0698">StorageManager</text></g><!--class UserPrefsStorage--><g id="elem_UserPrefsStorage"><rect codeLine="9" fill="#A38300" height="44.4971" id="UserPrefsStorage" rx="2.5" ry="2.5" style="stroke:#FFFFFF;stroke-width:1.0;" width="123" x="1075.5" y="136"/><text fill="#FFFFFF" font-family="Arial" font-size="15" lengthAdjust="spacing" textLength="72" x="1101" y="155.0698">&#171;interface&#187;</text><text fill="#FFFFFF" font-family="Arial" font-size="15" lengthAdjust="spacing" textLength="117" x="1078.5" y="172.3184">UserPrefsStorage</text></g><!--class JsonUserPrefsStorage--><g id="elem_JsonUserPrefsStorage"><rect codeLine="10" fill="#A38300" height="27.2485" id="JsonUserPrefsStorage" rx="2.5" ry="2.5" style="stroke:#FFFFFF;stroke-width:1.0;" width="154" x="1075" y="240"/><text fill="#FFFFFF" font-family="Arial" font-size="15" lengthAdjust="spacing" textLength="148" x="1078" y="259.0698">JsonUserPrefsStorage</text></g><!--class AddressBookStorage--><g id="elem_AddressBookStorage"><rect codeLine="17" fill="#A38300" height="44.4971" id="AddressBookStorage" rx="2.5" ry="2.5" style="stroke:#FFFFFF;stroke-width:1.0;" width="144" x="663" y="136"/><text fill="#FFFFFF" font-family="Arial" font-size="15" lengthAdjust="spacing" textLength="72" x="699" y="155.0698">&#171;interface&#187;</text><text fill="#FFFFFF" font-family="Arial" font-size="15" lengthAdjust="spacing" textLength="138" x="666" y="172.3184">AddressBookStorage</text></g><!--class JsonAddressBookStorage--><g id="elem_JsonAddressBookStorage"><rect codeLine="18" fill="#A38300" height="27.2485" id="JsonAddressBookStorage" rx="2.5" ry="2.5" style="stroke:#FFFFFF;stroke-width:1.0;" width="175" x="671.5" y="240"/><text fill="#FFFFFF" font-family="Arial" font-size="15" lengthAdjust="spacing" textLength="169" x="674.5" y="259.0698">JsonAddressBookStorage</text></g><!--class JsonSerializableAddressBook--><g id="elem_JsonSerializableAddressBook"><rect codeLine="19" fill="#A38300" height="27.2485" id="JsonSerializableAddressBook" rx="2.5" ry="2.5" style="stroke:#FFFFFF;stroke-width:1.0;" width="199" x="665.5" y="327"/><text fill="#FFFFFF" font-family="Arial" font-size="15" lengthAdjust="spacing" textLength="193" x="668.5" y="346.0698">JsonSerializableAddressBook</text></g><!--class JsonAdaptedPerson--><g id="elem_JsonAdaptedPerson"><rect codeLine="20" fill="#A38300" height="27.2485" id="JsonAdaptedPerson" rx="2.5" ry="2.5" style="stroke:#FFFFFF;stroke-width:1.0;" width="137" x="697.5" y="414"/><text fill="#FFFFFF" font-family="Arial" font-size="15" lengthAdjust="spacing" textLength="131" x="700.5" y="433.0698">JsonAdaptedPerson</text></g><!--class JsonAdaptedEntityStatisticMap--><g id="elem_JsonAdaptedEntityStatisticMap"><rect codeLine="21" fill="#A38300" height="27.2485" id="JsonAdaptedEntityStatisticMap" rx="2.5" ry="2.5" style="stroke:#FFFFFF;stroke-width:1.0;" width="205" x="663.5" y="501"/><text fill="#FFFFFF" font-family="Arial" font-size="15" lengthAdjust="spacing" textLength="199" x="666.5" y="520.0698">JsonAdaptedEntityStatisticMap</text></g><!--class JsonAdaptedTag--><g id="elem_JsonAdaptedTag"><rect codeLine="22" fill="#A38300" height="27.2485" id="JsonAdaptedTag" rx="2.5" ry="2.5" style="stroke:#FFFFFF;stroke-width:1.0;" width="115" x="903.5" y="501"/><text fill="#FFFFFF" font-family="Arial" font-size="15" lengthAdjust="spacing" textLength="109" x="906.5" y="520.0698">JsonAdaptedTag</text></g><!--class MatchRecordStorage--><g id="elem_MatchRecordStorage"><rect codeLine="26" fill="#A38300" height="44.4971" id="MatchRecordStorage" rx="2.5" ry="2.5" style="stroke:#FFFFFF;stroke-width:1.0;" width="144" x="341" y="136"/><text fill="#FFFFFF" font-family="Arial" font-size="15" lengthAdjust="spacing" textLength="72" x="377" y="155.0698">&#171;interface&#187;</text><text fill="#FFFFFF" font-family="Arial" font-size="15" lengthAdjust="spacing" textLength="138" x="344" y="172.3184">MatchRecordStorage</text></g><!--class JsonMatchRecordStorage--><g id="elem_JsonMatchRecordStorage"><rect codeLine="27" fill="#A38300" height="27.2485" id="JsonMatchRecordStorage" rx="2.5" ry="2.5" style="stroke:#FFFFFF;stroke-width:1.0;" width="175" x="302.5" y="240"/><text fill="#FFFFFF" font-family="Arial" font-size="15" lengthAdjust="spacing" textLength="169" x="305.5" y="259.0698">JsonMatchRecordStorage</text></g><!--class JsonSerializableMatchRecord--><g id="elem_JsonSerializableMatchRecord"><rect codeLine="28" fill="#A38300" height="27.2485" id="JsonSerializableMatchRecord" rx="2.5" ry="2.5" style="stroke:#FFFFFF;stroke-width:1.0;" width="199" x="285.5" y="327"/><text fill="#FFFFFF" font-family="Arial" font-size="15" lengthAdjust="spacing" textLength="193" x="288.5" y="346.0698">JsonSerializableMatchRecord</text></g><!--class JsonAdaptedMatch--><g id="elem_JsonAdaptedMatch"><rect codeLine="29" fill="#A38300" height="27.2485" id="JsonAdaptedMatch" rx="2.5" ry="2.5" style="stroke:#FFFFFF;stroke-width:1.0;" width="129" x="320.5" y="414"/><text fill="#FFFFFF" font-family="Arial" font-size="15" lengthAdjust="spacing" textLength="123" x="323.5" y="433.0698">JsonAdaptedMatch</text></g><!--class EntityStorage--><g id="elem_EntityStorage"><rect codeLine="33" fill="#A38300" height="44.4971" id="EntityStorage" rx="2.5" ry="2.5" style="stroke:#FFFFFF;stroke-width:1.0;" width="93" x="135.5" y="136"/><text fill="#FFFFFF" font-family="Arial" font-size="15" lengthAdjust="spacing" textLength="72" x="146" y="155.0698">&#171;interface&#187;</text><text fill="#FFFFFF" font-family="Arial" font-size="15" lengthAdjust="spacing" textLength="87" x="138.5" y="172.3184">EntityStorage</text></g><!--class JsonEntityStorage--><g id="elem_JsonEntityStorage"><rect codeLine="34" fill="#A38300" height="27.2485" id="JsonEntityStorage" rx="2.5" ry="2.5" style="stroke:#FFFFFF;stroke-width:1.0;" width="124" x="91" y="240"/><text fill="#FFFFFF" font-family="Arial" font-size="15" lengthAdjust="spacing" textLength="118" x="94" y="259.0698">JsonEntityStorage</text></g><!--class JsonAdaptedEntityPathPair--><g id="elem_JsonAdaptedEntityPathPair"><rect codeLine="35" fill="#A38300" height="27.2485" id="JsonAdaptedEntityPathPair" rx="2.5" ry="2.5" style="stroke:#FFFFFF;stroke-width:1.0;" width="182" x="47" y="327"/><text fill="#FFFFFF" font-family="Arial" font-size="15" lengthAdjust="spacing" textLength="176" x="50" y="346.0698">JsonAdaptedEntityPathPair</text></g><!--class HiddenOutside--><g id="elem_HiddenOutside"><rect codeLine="41" fill="#FFFFFF" height="27.2485" id="HiddenOutside" rx="2.5" ry="2.5" style="stroke:#FFFFFF;stroke-width:1.0;" width="102" x="523" y="7"/><text fill="#FFFFFF" font-family="Arial" font-size="15" lengthAdjust="spacing" textLength="96" x="526" y="26.0698">HiddenOutside</text></g><!--link HiddenOutside to Storage--><g id="link_HiddenOutside_Storage"><path codeLine="42" d="M574,34 C574,57.2 574,101.12 574,129.72 " fill="none" id="HiddenOutside-to-Storage" style="stroke:#A38300;stroke-width:1.1;stroke-dasharray:7.0,7.0;"/><polygon fill="#A38300" points="574,135.72,578,126.72,574,130.72,570,126.72,574,135.72" style="stroke:#A38300;stroke-width:1.1;"/></g><!--reverse link Storage to StorageManager--><g id="link_Storage_StorageManager"><path codeLine="44" d="M574,198.22 C574,216.64 574,224.7 574,239.98 " fill="none" id="Storage-backto-StorageManager" style="stroke:#A38300;stroke-width:1.1;stroke-dasharray:7.0,7.0;"/><polygon fill="none" points="574,180.22,568,198.22,580,198.22,574,180.22" style="stroke:#A38300;stroke-width:1.1;"/></g><!--reverse link UserPrefsStorage to StorageManager--><g id="link_UserPrefsStorage_StorageManager"><path codeLine="45" d="M1069.4601,173.4046 C1056.1701,176.1046 1048.08,177.64 1035,180 C863.27,210.94 819.22,211.94 647,240 C641.67,240.87 636.12,241.79 630.58,242.72 " fill="none" id="UserPrefsStorage-backto-StorageManager" style="stroke:#A38300;stroke-width:1.1;"/><polygon fill="#A38300" points="1075.34,172.21,1065.7238,170.0819,1070.4401,173.2055,1067.3165,177.9218,1075.34,172.21" style="stroke:#A38300;stroke-width:1.1;"/><text fill="#000000" font-family="sans-serif" font-size="13" font-weight="bold" lengthAdjust="spacing" textLength="7" x="1060.3986" y="170.4531">1</text></g><!--reverse link AddressBookStorage to StorageManager--><g id="link_AddressBookStorage_StorageManager"><path codeLine="46" d="M693.281,183.2323 C661.551,201.6523 621.86,224.7 595.56,239.98 " fill="none" id="AddressBookStorage-backto-StorageManager" style="stroke:#A38300;stroke-width:1.1;"/><polygon fill="#A38300" points="698.47,180.22,688.6783,181.2792,694.1458,182.7303,692.6947,188.1978,698.47,180.22" style="stroke:#A38300;stroke-width:1.1;"/><text fill="#000000" font-family="sans-serif" font-size="13" font-weight="bold" lengthAdjust="spacing" textLength="7" x="680.7119" y="201.8172">1</text></g><!--reverse link MatchRecordStorage to StorageManager--><g id="link_MatchRecordStorage_StorageManager"><path codeLine="47" d="M454.719,183.2323 C486.449,201.6523 526.14,224.7 552.44,239.98 " fill="none" id="MatchRecordStorage-backto-StorageManager" style="stroke:#A38300;stroke-width:1.1;"/><polygon fill="#A38300" points="449.53,180.22,455.3053,188.1978,453.8542,182.7303,459.3217,181.2792,449.53,180.22" style="stroke:#A38300;stroke-width:1.1;"/><text fill="#000000" font-family="sans-serif" font-size="13" font-weight="bold" lengthAdjust="spacing" textLength="7" x="451.4068" y="201.8172">1</text></g><!--reverse link EntityStorage to StorageManager--><g id="link_EntityStorage_StorageManager"><path codeLine="48" d="M234.7815,171.7718 C247.7515,174.9118 256,176.89 269,180 C357.39,201.17 460.25,225.57 521.09,239.98 " fill="none" id="EntityStorage-backto-StorageManager" style="stroke:#A38300;stroke-width:1.1;"/><polygon fill="#A38300" points="228.95,170.36,236.7561,176.3654,233.8096,171.5365,238.6385,168.59,228.95,170.36" style="stroke:#A38300;stroke-width:1.1;"/><text fill="#000000" font-family="sans-serif" font-size="13" font-weight="bold" lengthAdjust="spacing" textLength="7" x="236.3598" y="168.4848">1</text></g><!--reverse link UserPrefsStorage to Storage--><g id="link_UserPrefsStorage_Storage"><path codeLine="50" d="M1118.046,119.8318 C1100.676,86.8318 1070.97,44.03 1017.5,38 C978.53,33.6 703.47,33.6 664.5,38 C656.57,38.89 653.51,37.38 647,42 C613.81,65.54 592.39,109.39 581.82,135.91 " fill="none" id="UserPrefsStorage-backto-Storage" style="stroke:#A38300;stroke-width:1.1;"/><polygon fill="none" points="1126.43,135.76,1123.3554,117.0371,1112.7366,122.6265,1126.43,135.76" style="stroke:#A38300;stroke-width:1.1;"/></g><!--link Storage to AddressBookStorage--><g id="link_Storage_AddressBookStorage"><path codeLine="51" d="M613.31,158 C629.79,158 628.27,158 644.74,158 " fill="none" id="Storage-to-AddressBookStorage" style="stroke:#A38300;stroke-width:1.1;"/><polygon fill="none" points="662.74,158,644.74,152,644.74,164,662.74,158" style="stroke:#A38300;stroke-width:1.1;"/></g><!--link Storage to MatchRecordStorage--><g id="link_Storage_MatchRecordStorage"><path codeLine="52" d="M534.72,158 C518.15,158 519.58,158 503.01,158 " fill="none" id="Storage-to-MatchRecordStorage" style="stroke:#A38300;stroke-width:1.1;"/><polygon fill="none" points="485.01,158,503.01,164,503.01,152,485.01,158" style="stroke:#A38300;stroke-width:1.1;"/></g><!--link Storage to EntityStorage--><g id="link_Storage_EntityStorage"><path codeLine="53" d="M566.18,135.91 C555.61,109.39 534.19,65.54 501,42 C494.49,37.38 491.43,38.89 483.5,38 C440,33.09 330,33.09 286.5,38 C278.57,38.89 275.69,37.65 269,42 C232.9,65.45 214.4878,93.3463 200.7378,119.8963 " fill="none" id="Storage-to-EntityStorage" style="stroke:#A38300;stroke-width:1.1;"/><polygon fill="none" points="192.46,135.88,206.0657,122.6556,195.4099,117.1371,192.46,135.88" style="stroke:#A38300;stroke-width:1.1;"/></g><!--reverse link UserPrefsStorage to JsonUserPrefsStorage--><g id="link_UserPrefsStorage_JsonUserPrefsStorage"><path codeLine="55" d="M1143.2559,197.992 C1146.2159,216.412 1147.54,224.7 1149.99,239.98 " fill="none" id="UserPrefsStorage-backto-JsonUserPrefsStorage" style="stroke:#A38300;stroke-width:1.1;stroke-dasharray:7.0,7.0;"/><polygon fill="none" points="1140.4,180.22,1137.3319,198.944,1149.1799,197.04,1140.4,180.22" style="stroke:#A38300;stroke-width:1.1;"/></g><!--reverse link AddressBookStorage to JsonAddressBookStorage--><g id="link_AddressBookStorage_JsonAddressBookStorage"><path codeLine="56" d="M744.9269,197.6544 C749.6569,216.0744 751.87,224.7 755.79,239.98 " fill="none" id="AddressBookStorage-backto-JsonAddressBookStorage" style="stroke:#A38300;stroke-width:1.1;stroke-dasharray:7.0,7.0;"/><polygon fill="none" points="740.45,180.22,739.1154,199.1467,750.7384,196.1621,740.45,180.22" style="stroke:#A38300;stroke-width:1.1;"/></g><!--link JsonAddressBookStorage to JsonSerializableAddressBook--><g id="link_JsonAddressBookStorage_JsonSerializableAddressBook"><path codeLine="57" d="M759.89,267.04 C761.02,283.11 762.5462,304.825 763.6862,320.925 " fill="none" id="JsonAddressBookStorage-to-JsonSerializableAddressBook" style="stroke:#A38300;stroke-width:1.1;stroke-dasharray:7.0,7.0;"/><polygon fill="#A38300" points="764.11,326.91,767.4643,317.65,763.7568,321.9225,759.4843,318.215,764.11,326.91" style="stroke:#A38300;stroke-width:1.1;"/></g><!--link JsonSerializableAddressBook to JsonAdaptedPerson--><g id="link_JsonSerializableAddressBook_JsonAdaptedPerson"><path codeLine="58" d="M765.15,354.04 C765.34,370.11 765.5892,391.8104 765.7792,407.9104 " fill="none" id="JsonSerializableAddressBook-to-JsonAdaptedPerson" style="stroke:#A38300;stroke-width:1.1;"/><polygon fill="#A38300" points="765.85,413.91,769.7435,404.8634,765.791,408.9103,761.7441,404.9578,765.85,413.91" style="stroke:#A38300;stroke-width:1.1;"/><text fill="#000000" font-family="sans-serif" font-size="13" font-weight="bold" lengthAdjust="spacing" textLength="5" x="759.8397" y="403.1936">*</text></g><!--link JsonAdaptedPerson to JsonAdaptedTag--><g id="link_JsonAdaptedPerson_JsonAdaptedTag"><path codeLine="59" d="M794.77,441.04 C831.64,457.11 889.68,482.4122 926.61,498.5122 " fill="none" id="JsonAdaptedPerson-to-JsonAdaptedTag" style="stroke:#A38300;stroke-width:1.1;"/><polygon fill="#A38300" points="932.11,500.91,925.4585,493.6466,927.5266,498.9118,922.2614,500.98,932.11,500.91" style="stroke:#A38300;stroke-width:1.1;"/><text fill="#000000" font-family="sans-serif" font-size="13" font-weight="bold" lengthAdjust="spacing" textLength="5" x="915.1426" y="490.1936">*</text></g><!--link JsonAdaptedPerson to JsonAdaptedEntityStatisticMap--><g id="link_JsonAdaptedPerson_JsonAdaptedEntityStatisticMap"><path codeLine="60" d="M766,441.04 C766,457.11 766,478.81 766,494.91 " fill="none" id="JsonAdaptedPerson-to-JsonAdaptedEntityStatisticMap" style="stroke:#A38300;stroke-width:1.1;"/><polygon fill="#A38300" points="766,500.91,770,491.91,766,495.91,762,491.91,766,500.91" style="stroke:#A38300;stroke-width:1.1;"/><text fill="#000000" font-family="sans-serif" font-size="13" font-weight="bold" lengthAdjust="spacing" textLength="7" x="757.6656" y="490.1936">1</text></g><!--reverse link MatchRecordStorage to JsonMatchRecordStorage--><g id="link_MatchRecordStorage_JsonMatchRecordStorage"><path codeLine="62" d="M403.4814,197.6992 C398.9514,216.1192 396.84,224.7 393.08,239.98 " fill="none" id="MatchRecordStorage-backto-JsonMatchRecordStorage" style="stroke:#A38300;stroke-width:1.1;stroke-dasharray:7.0,7.0;"/><polygon fill="none" points="407.78,180.22,397.655,196.2663,409.3078,199.1321,407.78,180.22" style="stroke:#A38300;stroke-width:1.1;"/></g><!--link JsonMatchRecordStorage to JsonSerializableMatchRecord--><g id="link_JsonMatchRecordStorage_JsonSerializableMatchRecord"><path codeLine="63" d="M389.26,267.04 C388.32,283.11 387.0434,304.8204 386.0934,320.9204 " fill="none" id="JsonMatchRecordStorage-to-JsonSerializableMatchRecord" style="stroke:#A38300;stroke-width:1.1;stroke-dasharray:7.0,7.0;"/><polygon fill="#A38300" points="385.74,326.91,390.2632,318.1612,386.0345,321.9187,382.2771,317.69,385.74,326.91" style="stroke:#A38300;stroke-width:1.1;"/></g><!--link JsonSerializableMatchRecord to JsonAdaptedMatch--><g id="link_JsonSerializableMatchRecord_JsonAdaptedMatch"><path codeLine="64" d="M385,354.04 C385,370.11 385,391.81 385,407.91 " fill="none" id="JsonSerializableMatchRecord-to-JsonAdaptedMatch" style="stroke:#A38300;stroke-width:1.1;"/><polygon fill="#A38300" points="385,413.91,389,404.91,385,408.91,381,404.91,385,413.91" style="stroke:#A38300;stroke-width:1.1;"/><text fill="#000000" font-family="sans-serif" font-size="13" font-weight="bold" lengthAdjust="spacing" textLength="5" x="379.0469" y="403.1936">*</text></g><!--reverse link EntityStorage to JsonEntityStorage--><g id="link_EntityStorage_JsonEntityStorage"><path codeLine="66" d="M170.0819,197.4102 C164.3619,215.8302 161.62,224.7 156.88,239.98 " fill="none" id="EntityStorage-backto-JsonEntityStorage" style="stroke:#A38300;stroke-width:1.1;stroke-dasharray:7.0,7.0;"/><polygon fill="none" points="175.42,180.22,164.3518,195.6309,175.812,199.1896,175.42,180.22" style="stroke:#A38300;stroke-width:1.1;"/></g><!--link JsonEntityStorage to JsonAdaptedEntityPathPair--><g id="link_JsonEntityStorage_JsonAdaptedEntityPathPair"><path codeLine="67" d="M150.79,267.04 C147.95,283.11 144.1023,304.9012 141.2623,321.0012 " fill="none" id="JsonEntityStorage-to-JsonAdaptedEntityPathPair" style="stroke:#A38300;stroke-width:1.1;"/><polygon fill="#A38300" points="140.22,326.91,145.7226,318.7417,141.0886,321.986,137.8443,317.352,140.22,326.91" style="stroke:#A38300;stroke-width:1.1;"/><text fill="#000000" font-family="sans-serif" font-size="13" font-weight="bold" lengthAdjust="spacing" textLength="5" x="135.1133" y="316.1936">*</text></g><!--SRC=[ZLHTQy8m57tFhyZgsw05OVWaWXFT61EBkhV1k6kZ1cjIafInh_- -LcrDcgJJ1xNtd9kSSvFJ6ygIh4W9bkep8r5U738azvJb8E20GGZ-iTxHPC-8bBWVzTlWX6TSuDLwiHm_JDycY-V5KgCa6KXv3yb-AtZ1KXSPvIKCMu9NYelg5sJzDpuZtnTIy2A9Y0NPDAG0zsPtiy5iy8qcrMuu60ufKqHi826ZqIjhEfg6SeTsyTpx9Bd5Hx_8ixA-eBdE-MaEhFmMclnncefoalUSxwyseFNeEzfbpKGdk2A2GaQ_u3qZ6j5eXroHD2QYVB3hKwQe-bmfK5GgcimXjpbhs5QJQvpFGIMx9KcuIAzshlNepksojdqdg3lNYBRw8sZeFtc-MdezeejgewBjwAiRiuv1xMAWef9qkP2FD4q9MnHAqZB1lTdnWyng58sQoudCUucZ8ez-Bd0B3Oiy7E6W7zXfyJ8TzyxBTPoKbsiEgURXC2CR5POMV0fnAEXsTwJufMaaloQDr1BZUcdKexLqkSDPqnqQVGtbiNPbkGF3OJNKsy2HTAlYubR9zX3xmJ-l2UIEQEtVCNvVWyE_dkWEpENfb7TavR4MPXwvJNCisGhk7m00]--></g></svg>
