<?xml version="1.0" encoding="us-ascii" standalone="no"?><svg xmlns="http://www.w3.org/2000/svg" xmlns:xlink="http://www.w3.org/1999/xlink" contentStyleType="text/css" height="533px" preserveAspectRatio="none" style="width:1265px;height:533px;background:#FFFFFF;" version="1.1" viewBox="0 0 1265 533" width="1265px" zoomAndPan="magnify"><defs/><g><!--cluster UI--><g id="cluster_UI"><rect fill="#FFFFFF" height="469" rx="2.5" ry="2.5" style="stroke:#181818;stroke-width:1.0;" width="971" x="99.78" y="58"/><text fill="#000000" font-family="sans-serif" font-size="14" font-weight="bold" lengthAdjust="spacing" textLength="14" x="578.28" y="74.5332">UI</text></g><!--cluster Model--><g id="cluster_Model"><rect fill="#FFFFFF" height="95" rx="2.5" ry="2.5" style="stroke:#181818;stroke-width:1.0;" width="157" x="1102.78" y="431.5"/><text fill="#000000" font-family="sans-serif" font-size="14" font-weight="bold" lengthAdjust="spacing" textLength="44" x="1159.28" y="448.0332">Model</text></g><!--cluster Logic--><g id="cluster_Logic"><rect fill="#FFFFFF" height="95" rx="2.5" ry="2.5" style="stroke:#181818;stroke-width:1.0;" width="153" x="1102.78" y="162"/><text fill="#000000" font-family="sans-serif" font-size="14" font-weight="bold" lengthAdjust="spacing" textLength="38" x="1160.28" y="178.5332">Logic</text></g><!--class Ui--><g id="elem_Ui"><rect codeLine="7" fill="#1D8900" height="44.4971" id="Ui" rx="2.5" ry="2.5" style="stroke:#FFFFFF;stroke-width:1.0;" width="78" x="662.78" y="94"/><text fill="#FFFFFF" font-family="Arial" font-size="15" lengthAdjust="spacing" textLength="72" x="665.78" y="113.0698">&#171;interface&#187;</text><text fill="#FFFFFF" font-family="Arial" font-size="15" lengthAdjust="spacing" textLength="13" x="695.28" y="130.3184">Ui</text></g><!--class UiPart--><g id="elem_UiPart"><rect codeLine="8" fill="#1D8900" height="44.4971" id="UiPart" rx="2.5" ry="2.5" style="stroke:#FFFFFF;stroke-width:1.0;" width="69" x="510.28" y="467"/><text fill="#FFFFFF" font-family="Arial" font-size="15" lengthAdjust="spacing" textLength="63" x="513.28" y="486.0698">{abstract}</text><text fill="#FFFFFF" font-family="Arial" font-size="15" lengthAdjust="spacing" textLength="40" x="524.78" y="503.3184">UiPart</text></g><!--class UiManager--><g id="elem_UiManager"><rect codeLine="9" fill="#1D8900" height="27.2485" id="UiManager" rx="2.5" ry="2.5" style="stroke:#FFFFFF;stroke-width:1.0;" width="75" x="776.28" y="102.5"/><text fill="#FFFFFF" font-family="Arial" font-size="15" lengthAdjust="spacing" textLength="69" x="779.28" y="121.5698">UiManager</text></g><!--class MainWindow--><g id="elem_MainWindow"><rect codeLine="10" fill="#1D8900" height="27.2485" id="MainWindow" rx="2.5" ry="2.5" style="stroke:#FFFFFF;stroke-width:1.0;" width="89" x="567.28" y="206"/><text fill="#FFFFFF" font-family="Arial" font-size="15" lengthAdjust="spacing" textLength="83" x="570.28" y="225.0698">MainWindow</text></g><!--class HelpWindow--><g id="elem_HelpWindow"><rect codeLine="11" fill="#1D8900" height="27.2485" id="HelpWindow" rx="2.5" ry="2.5" style="stroke:#FFFFFF;stroke-width:1.0;" width="88" x="567.78" y="293"/><text fill="#FFFFFF" font-family="Arial" font-size="15" lengthAdjust="spacing" textLength="82" x="570.78" y="312.0698">HelpWindow</text></g><!--class ResultDisplay--><g id="elem_ResultDisplay"><rect codeLine="12" fill="#1D8900" height="27.2485" id="ResultDisplay" rx="2.5" ry="2.5" style="stroke:#FFFFFF;stroke-width:1.0;" width="96" x="301.78" y="293"/><text fill="#FFFFFF" font-family="Arial" font-size="15" lengthAdjust="spacing" textLength="90" x="304.78" y="312.0698">ResultDisplay</text></g><!--class PersonListPanel--><g id="elem_PersonListPanel"><rect codeLine="13" fill="#1D8900" height="27.2485" id="PersonListPanel" rx="2.5" ry="2.5" style="stroke:#FFFFFF;stroke-width:1.0;" width="113" x="941.28" y="293"/><text fill="#FFFFFF" font-family="Arial" font-size="15" lengthAdjust="spacing" textLength="107" x="944.28" y="312.0698">PersonListPanel</text></g><!--class PersonCard--><g id="elem_PersonCard"><rect codeLine="14" fill="#1D8900" height="27.2485" id="PersonCard" rx="2.5" ry="2.5" style="stroke:#FFFFFF;stroke-width:1.0;" width="85" x="955.28" y="380"/><text fill="#FFFFFF" font-family="Arial" font-size="15" lengthAdjust="spacing" textLength="79" x="958.28" y="399.0698">PersonCard</text></g><!--class StatusBarFooter--><g id="elem_StatusBarFooter"><rect codeLine="15" fill="#1D8900" height="27.2485" id="StatusBarFooter" rx="2.5" ry="2.5" style="stroke:#FFFFFF;stroke-width:1.0;" width="113" x="153.28" y="293"/><text fill="#FFFFFF" font-family="Arial" font-size="15" lengthAdjust="spacing" textLength="107" x="156.28" y="312.0698">StatusBarFooter</text></g><!--class CommandBox--><g id="elem_CommandBox"><rect codeLine="16" fill="#1D8900" height="27.2485" id="CommandBox" rx="2.5" ry="2.5" style="stroke:#FFFFFF;stroke-width:1.0;" width="100" x="432.78" y="293"/><text fill="#FFFFFF" font-family="Arial" font-size="15" lengthAdjust="spacing" textLength="94" x="435.78" y="312.0698">CommandBox</text></g><!--class ComparePanel--><g id="elem_ComparePanel"><rect codeLine="17" fill="#1D8900" height="27.2485" id="ComparePanel" rx="2.5" ry="2.5" style="stroke:#FFFFFF;stroke-width:1.0;" width="104" x="801.78" y="293"/><text fill="#FFFFFF" font-family="Arial" font-size="15" lengthAdjust="spacing" textLength="98" x="804.78" y="312.0698">ComparePanel</text></g><!--class DraftPanel--><g id="elem_DraftPanel"><rect codeLine="18" fill="#1D8900" height="27.2485" id="DraftPanel" rx="2.5" ry="2.5" style="stroke:#FFFFFF;stroke-width:1.0;" width="75" x="691.28" y="293"/><text fill="#FFFFFF" font-family="Arial" font-size="15" lengthAdjust="spacing" textLength="69" x="694.28" y="312.0698">DraftPanel</text></g><!--class HiddenModel--><g id="elem_HiddenModel"><rect codeLine="22" fill="#FFFFFF" height="27.2485" id="HiddenModel" rx="2.5" ry="2.5" style="stroke:#FFFFFF;stroke-width:1.0;" width="89" x="1146.28" y="475.5"/><text fill="#FFFFFF" font-family="Arial" font-size="15" lengthAdjust="spacing" textLength="83" x="1149.28" y="494.5698">HiddenModel</text></g><!--class HiddenLogic--><g id="elem_HiddenLogic"><rect codeLine="26" fill="#FFFFFF" height="27.2485" id="HiddenLogic" rx="2.5" ry="2.5" style="stroke:#FFFFFF;stroke-width:1.0;" width="86" x="1145.78" y="206"/><text fill="#FFFFFF" font-family="Arial" font-size="15" lengthAdjust="spacing" textLength="80" x="1148.78" y="225.0698">HiddenLogic</text></g><!--class HiddenOutside--><g id="elem_HiddenOutside"><rect codeLine="29" fill="#FFFFFF" height="27.2485" id="HiddenOutside" rx="2.5" ry="2.5" style="stroke:#FFFFFF;stroke-width:1.0;" width="102" x="650.78" y="7"/><text fill="#FFFFFF" font-family="Arial" font-size="15" lengthAdjust="spacing" textLength="96" x="653.78" y="26.0698">HiddenOutside</text></g><!--link HiddenOutside to Ui--><g id="link_HiddenOutside_Ui"><path codeLine="30" d="M701.78,34.11 C701.78,49.36 701.78,69.28 701.78,87.66 " fill="none" id="HiddenOutside-to-Ui" style="stroke:#0E4100;stroke-width:1.1;stroke-dasharray:7.0,7.0;"/><polygon fill="#0E4100" points="701.78,93.66,705.78,84.66,701.78,88.66,697.78,84.66,701.78,93.66" style="stroke:#0E4100;stroke-width:1.1;"/></g><!--reverse link Ui to UiManager--><g id="link_Ui_UiManager"><path codeLine="32" d="M759.16,116 C770.79,116 764.42,116 776.05,116 " fill="none" id="Ui-backto-UiManager" style="stroke:#0E4100;stroke-width:1.1;stroke-dasharray:7.0,7.0;"/><polygon fill="none" points="741.16,116,759.16,122,759.16,110,741.16,116" style="stroke:#0E4100;stroke-width:1.1;"/></g><!--link UiManager to MainWindow--><g id="link_UiManager_MainWindow"><path codeLine="33" d="M788.6,129.65 C749.79,149.15 681.1316,183.6568 642.3116,203.1568 " fill="none" id="UiManager-to-MainWindow" style="stroke:#0E4100;stroke-width:1.1;"/><polygon fill="#0E4100" points="636.95,205.85,646.7879,205.3846,641.418,203.6056,643.1969,198.2358,636.95,205.85" style="stroke:#0E4100;stroke-width:1.1;"/><text fill="#000000" font-family="sans-serif" font-size="13" font-weight="bold" lengthAdjust="spacing" textLength="7" x="638.2117" y="195.1107">1</text></g><!--link MainWindow to CommandBox--><g id="link_MainWindow_CommandBox"><path codeLine="34" d="M582.7295,239.6423 C558.3395,255.7123 531.3299,273.5083 506.8999,289.6083 " fill="none" id="MainWindow-CommandBox" style="stroke:#0E4100;stroke-width:1.1;"/><polygon fill="#0E4100" points="592.75,233.04,585.539,233.001,582.7295,239.6423,589.9405,239.6813,592.75,233.04" style="stroke:#0E4100;stroke-width:1.1;"/><polygon fill="#0E4100" points="501.89,292.91,511.606,291.2975,506.0649,290.1586,507.2037,284.6176,501.89,292.91" style="stroke:#0E4100;stroke-width:1.1;"/><text fill="#000000" font-family="sans-serif" font-size="13" font-weight="bold" lengthAdjust="spacing" textLength="7" x="500.8413" y="282.1936">1</text></g><!--link MainWindow to ResultDisplay--><g id="link_MainWindow_ResultDisplay"><path codeLine="35" d="M561.7057,236.7434 C512.1757,252.8134 443.917,274.9579 394.307,291.0579 " fill="none" id="MainWindow-ResultDisplay" style="stroke:#0E4100;stroke-width:1.1;"/><polygon fill="#0E4100" points="573.12,233.04,566.1784,231.0869,561.7057,236.7434,568.6473,238.6964,573.12,233.04" style="stroke:#0E4100;stroke-width:1.1;"/><polygon fill="#0E4100" points="388.6,292.91,398.3952,293.9365,393.3558,291.3666,395.9258,286.3272,388.6,292.91" style="stroke:#0E4100;stroke-width:1.1;"/><text fill="#000000" font-family="sans-serif" font-size="13" font-weight="bold" lengthAdjust="spacing" textLength="7" x="395.0658" y="282.1936">1</text></g><!--link MainWindow to PersonListPanel--><g id="link_MainWindow_PersonListPanel"><path codeLine="36" d="M668.159,232.9117 C738.609,248.4317 857.8805,274.6893 935.1905,291.7193 " fill="none" id="MainWindow-PersonListPanel" style="stroke:#0E4100;stroke-width:1.1;"/><polygon fill="#0E4100" points="656.44,230.33,661.4389,235.5272,668.159,232.9117,663.1601,227.7145,656.44,230.33" style="stroke:#0E4100;stroke-width:1.1;"/><polygon fill="#0E4100" points="941.05,293.01,933.1212,287.1675,936.1671,291.9344,931.4002,294.9802,941.05,293.01" style="stroke:#0E4100;stroke-width:1.1;"/><text fill="#000000" font-family="sans-serif" font-size="13" font-weight="bold" lengthAdjust="spacing" textLength="22" x="913.6782" y="287.1668">0..1</text></g><!--link MainWindow to ComparePanel--><g id="link_MainWindow_ComparePanel"><path codeLine="37" d="M658.8119,237.0169 C704.5619,253.0869 766.4391,274.8214 812.2691,290.9214 " fill="none" id="MainWindow-ComparePanel" style="stroke:#0E4100;stroke-width:1.1;"/><polygon fill="#0E4100" points="647.49,233.04,651.8253,238.8024,658.8119,237.0169,654.4766,231.2545,647.49,233.04" style="stroke:#0E4100;stroke-width:1.1;"/><polygon fill="#0E4100" points="817.93,292.91,810.7645,286.1531,813.2126,291.2528,808.113,293.7009,817.93,292.91" style="stroke:#0E4100;stroke-width:1.1;"/><text fill="#000000" font-family="sans-serif" font-size="13" font-weight="bold" lengthAdjust="spacing" textLength="22" x="778.0684" y="282.1936">0..1</text></g><!--link MainWindow to DraftPanel--><g id="link_MainWindow_DraftPanel"><path codeLine="38" d="M638.7484,240.0931 C660.8684,256.1631 684.4359,273.2833 706.5959,289.3833 " fill="none" id="MainWindow-DraftPanel" style="stroke:#0E4100;stroke-width:1.1;"/><polygon fill="#0E4100" points="629.04,233.04,631.5432,239.8027,638.7484,240.0931,636.2453,233.3304,629.04,233.04" style="stroke:#0E4100;stroke-width:1.1;"/><polygon fill="#0E4100" points="711.45,292.91,706.5199,284.3839,707.4049,289.9711,701.8177,290.8561,711.45,292.91" style="stroke:#0E4100;stroke-width:1.1;"/><text fill="#000000" font-family="sans-serif" font-size="13" font-weight="bold" lengthAdjust="spacing" textLength="22" x="678.6492" y="282.1936">0..1</text></g><!--link MainWindow to StatusBarFooter--><g id="link_MainWindow_StatusBarFooter"><path codeLine="39" d="M555.4796,232.4026 C481.9896,247.9426 353.0903,275.1992 272.3303,292.2692 " fill="none" id="MainWindow-StatusBarFooter" style="stroke:#0E4100;stroke-width:1.1;"/><polygon fill="#0E4100" points="567.22,229.92,560.5223,227.2478,555.4796,232.4026,562.1773,235.0748,567.22,229.92" style="stroke:#0E4100;stroke-width:1.1;"/><polygon fill="#0E4100" points="266.46,293.51,276.0926,295.5624,271.3519,292.476,274.4383,287.7353,266.46,293.51" style="stroke:#0E4100;stroke-width:1.1;"/><text fill="#000000" font-family="sans-serif" font-size="13" font-weight="bold" lengthAdjust="spacing" textLength="7" x="274.1706" y="288.3224">1</text></g><!--link MainWindow to HelpWindow--><g id="link_MainWindow_HelpWindow"><path codeLine="40" d="M611.78,233.04 C611.78,249.11 611.78,270.81 611.78,286.91 " fill="none" id="MainWindow-to-HelpWindow" style="stroke:#0E4100;stroke-width:1.1;"/><polygon fill="#0E4100" points="611.78,292.91,615.78,283.91,611.78,287.91,607.78,283.91,611.78,292.91" style="stroke:#0E4100;stroke-width:1.1;"/><text fill="#000000" font-family="sans-serif" font-size="13" font-weight="bold" lengthAdjust="spacing" textLength="22" x="585.5863" y="282.1936">0..1</text></g><!--link PersonListPanel to PersonCard--><g id="link_PersonListPanel_PersonCard"><path codeLine="42" d="M997.78,320.04 C997.78,336.11 997.78,357.81 997.78,373.91 " fill="none" id="PersonListPanel-to-PersonCard" style="stroke:#0E4100;stroke-width:1.1;"/><polygon fill="#0E4100" points="997.78,379.91,1001.78,370.91,997.78,374.91,993.78,370.91,997.78,379.91" style="stroke:#0E4100;stroke-width:1.1;"/><text fill="#000000" font-family="sans-serif" font-size="13" font-weight="bold" lengthAdjust="spacing" textLength="5" x="991.8269" y="369.1936">*</text></g><!--reverse link UiPart to MainWindow--><g id="link_UiPart_MainWindow"><path codeLine="44" d="M492.1495,481.655 C377.3795,467.815 45.35,419.19 153.78,293 C207.64,230.31 462.32,221.21 567.13,220.32 " fill="none" id="UiPart-backto-MainWindow" style="stroke:#0E4100;stroke-width:1.1;"/><polygon fill="none" points="510.02,483.81,492.8678,475.6982,491.4311,487.6119,510.02,483.81" style="stroke:#0E4100;stroke-width:1.1;"/></g><!--link MainWindow to UiPart--><!--link ResultDisplay to UiPart--><g id="link_ResultDisplay_UiPart"><path codeLine="46" d="M363.49,320.19 C396.61,350.85 468.0099,416.9432 508.8499,454.7432 " fill="none" id="ResultDisplay-to-UiPart" style="stroke:#0E4100;stroke-width:1.1;"/><polygon fill="none" points="522.06,466.97,512.9255,450.3399,504.7743,459.1466,522.06,466.97" style="stroke:#0E4100;stroke-width:1.1;"/></g><!--link CommandBox to UiPart--><g id="link_CommandBox_UiPart"><path codeLine="47" d="M487.14,320.19 C497.67,350.85 518.7201,412.1471 531.7101,449.9471 " fill="none" id="CommandBox-to-UiPart" style="stroke:#0E4100;stroke-width:1.1;"/><polygon fill="none" points="537.56,466.97,537.3844,447.9971,526.0358,451.8971,537.56,466.97" style="stroke:#0E4100;stroke-width:1.1;"/></g><!--link PersonListPanel to UiPart--><g id="link_PersonListPanel_UiPart"><path codeLine="48" d="M966.29,320.05 C884.32,352.71 681.5511,433.4962 596.1611,467.5262 " fill="none" id="PersonListPanel-to-UiPart" style="stroke:#0E4100;stroke-width:1.1;"/><polygon fill="none" points="579.44,474.19,598.3823,473.0999,593.9398,461.9526,579.44,474.19" style="stroke:#0E4100;stroke-width:1.1;"/></g><!--link ComparePanel to UiPart--><g id="link_ComparePanel_UiPart"><path codeLine="49" d="M832.05,320.19 C779.3,351.01 659.6321,420.9103 595.3221,458.4803 " fill="none" id="ComparePanel-to-UiPart" style="stroke:#0E4100;stroke-width:1.1;"/><polygon fill="none" points="579.78,467.56,598.3487,463.661,592.2956,453.2995,579.78,467.56" style="stroke:#0E4100;stroke-width:1.1;"/></g><!--link DraftPanel to UiPart--><g id="link_DraftPanel_UiPart"><path codeLine="50" d="M715.84,320.19 C684.59,350.85 617.5991,416.5644 579.0691,454.3644 " fill="none" id="DraftPanel-to-UiPart" style="stroke:#0E4100;stroke-width:1.1;"/><polygon fill="none" points="566.22,466.97,583.2709,458.6474,574.8672,450.0814,566.22,466.97" style="stroke:#0E4100;stroke-width:1.1;"/></g><!--link PersonCard to UiPart--><g id="link_PersonCard_UiPart"><path codeLine="51" d="M955.16,403.3 C865.96,421.71 678.7284,460.3513 596.9984,477.2213 " fill="none" id="PersonCard-to-UiPart" style="stroke:#0E4100;stroke-width:1.1;"/><polygon fill="none" points="579.37,480.86,598.2113,483.0974,595.7855,471.3452,579.37,480.86" style="stroke:#0E4100;stroke-width:1.1;"/></g><!--link StatusBarFooter to UiPart--><g id="link_StatusBarFooter_UiPart"><path codeLine="52" d="M233.07,320.05 C291.01,351.27 426.0441,424.0215 494.3941,460.8515 " fill="none" id="StatusBarFooter-to-UiPart" style="stroke:#0E4100;stroke-width:1.1;"/><polygon fill="none" points="510.24,469.39,497.2402,455.5695,491.5479,466.1335,510.24,469.39" style="stroke:#0E4100;stroke-width:1.1;"/></g><!--link HelpWindow to UiPart--><g id="link_HelpWindow_UiPart"><path codeLine="53" d="M607.07,320.19 C595.69,350.85 572.8834,412.2949 558.8534,450.0949 " fill="none" id="HelpWindow-to-UiPart" style="stroke:#0E4100;stroke-width:1.1;"/><polygon fill="none" points="552.59,466.97,564.4785,452.1827,553.2284,448.0071,552.59,466.97" style="stroke:#0E4100;stroke-width:1.1;"/></g><!--link PersonCard to Model--><g id="link_PersonCard_Model"><path codeLine="55" d="M1040.63,400.85 C1051.28,403.96 1062.12,408.59 1070.78,415.5 C1084.715,426.615 1094.535,443.9725 1100.9575,458.9175 C1101.3589,459.8516 1101.747,460.7762 1102.1221,461.6893 C1102.3096,462.1459 1100.2571,457.032 1100.4381,457.4825 " fill="none" id="PersonCard-to-Model" style="stroke:#0E4100;stroke-width:1.1;stroke-dasharray:7.0,7.0;"/><polygon fill="#0E4100" points="1102.6748,463.05,1103.0314,453.2076,1100.8109,458.4105,1095.6081,456.1899,1102.6748,463.05" style="stroke:#0E4100;stroke-width:1.1;"/></g><!--link UiManager to Logic--><g id="link_UiManager_Logic"><path codeLine="56" d="M851.37,117.09 C913.86,117.91 1035.74,122.57 1070.78,146 C1085.595,155.91 1095.4425,173.23 1101.6588,188.4563 C1101.853,188.9321 1102.0437,189.4058 1102.2309,189.8773 C1102.3245,190.113 1102.4173,190.3481 1102.5091,190.5827 C1102.555,190.6999 1100.4255,185.2252 1100.471,185.3422 " fill="none" id="UiManager-to-Logic" style="stroke:#0E4100;stroke-width:1.1;"/><polygon fill="#0E4100" points="1102.6462,190.934,1103.1112,181.0961,1100.8335,186.2741,1095.6555,183.9965,1102.6462,190.934" style="stroke:#0E4100;stroke-width:1.1;"/></g><!--reverse link Logic to MainWindow--><g id="link_Logic_MainWindow"><path codeLine="57" d="M1095.4777,219.5 C1094.2961,219.5 1097.342,219.5 1096.1603,219.5 C1091.4338,219.5 1086.7073,219.5 1081.9807,219.5 C1072.5277,219.5 1063.0747,219.5 1053.6217,219.5 C1034.7157,219.5 1015.8099,219.5 996.9042,219.5 C959.0928,219.5 921.2819,219.5 883.4713,219.5 C807.85,219.5 732.23,219.5 656.61,219.5 " fill="none" id="Logic-backto-MainWindow" style="stroke:#0E4100;stroke-width:1.1;"/><polygon fill="#0E4100" points="1101.4777,219.5,1092.4777,215.5,1096.4777,219.5,1092.4777,223.5,1101.4777,219.5" style="stroke:#0E4100;stroke-width:1.1;"/></g><!--link ComparePanel to PersonListPanel--><!--link DraftPanel to ComparePanel--><!--link HelpWindow to DraftPanel--><!--link CommandBox to HelpWindow--><!--link ResultDisplay to CommandBox--><!--link StatusBarFooter to ResultDisplay--><!--SRC=[VPH1R-8m48Nl-HLkzbQ9Q97sY3WqLTMLG22sQ0zjXQQ92HR6Zcn7RTNslw_Z9dWci70ARpwFCsyUN0bLoARapBftoREwESZ4xeMgmS21WJ7wzM4dYhtYrh9nDXuMSosrOUlVctmnMwms3xyGK4YmzWQAVMLqeqgA9adjAr1nhx39PCKB1wgIV3hzIFBs84id4w4SDrielFgarY9bODbQzFKFUB7EGE6-sk8IZEk0zh63rc8EojzYkkzp4EglKAL-xOHxBciYhBXjfBiLjfRmtcbBRgnMCs7T4XINHCt1b9tmnu5h_CJcJcjtl3BNXmEeyaQ_HS4Rn76hMmFRhlTNT6QkIowfEQntvrwK9LVVn8-xyC57PxeInSMZtmGwYekBnbdXKz6NgPfbqtODoT5Sbac-TTbdaACwygwgqPIbunGR7n_PTOy41ZbrZcaHkfsprCyiy-1mPHTGieyB75hI_rvlc034ZM8ZbBbay9xHi-iK1unqQiqU1RD3qXDYYhyebgAZH3wvb1uvka4ASVmplTgN9FB02LABynCPjseZ5iADusH4jNFUcn3TKqVwmkbuZxkGt-U03Nv_P5mAeeNZuIc4beddEhdo-1-0La8Xckt1KYawp1aneqUZjVy0]--></g></svg>